<svg width="113" height="113" viewBox="0 0 113 113" fill="none" xmlns="http://www.w3.org/2000/svg">
<path fill-rule="evenodd" clip-rule="evenodd" d="M51.7917 14.1251C51.7917 11.5247 53.8997 9.41675 56.5001 9.41675C59.1004 9.41675 61.2084 11.5247 61.2084 14.1251V19.1248C78.2465 21.2495 91.7507 34.7536 93.8753 51.7917H98.8751C101.475 51.7917 103.583 53.8997 103.583 56.5001C103.583 59.1004 101.475 61.2084 98.8751 61.2084H93.8753C91.7507 78.2465 78.2465 91.7507 61.2084 93.8753V98.8751C61.2084 101.475 59.1004 103.583 56.5001 103.583C53.8997 103.583 51.7917 101.475 51.7917 98.8751V93.8753C34.7536 91.7507 21.2495 78.2465 19.1248 61.2084H14.1251C11.5247 61.2084 9.41675 59.1004 9.41675 56.5001C9.41675 53.8997 11.5247 51.7917 14.1251 51.7917H19.1248C21.2495 34.7536 34.7536 21.2495 51.7917 19.1248V14.1251ZM28.2501 56.5001C28.2501 72.1021 40.898 84.7501 56.5001 84.7501C72.1021 84.7501 84.7501 72.1021 84.7501 56.5001C84.7501 40.898 72.1021 28.2501 56.5001 28.2501C40.898 28.2501 28.2501 40.898 28.2501 56.5001Z" fill="#183F6B"/>
<path d="M65.9166 56.4999C65.9166 61.7006 61.7006 65.9166 56.4999 65.9166C51.2992 65.9166 47.0833 61.7006 47.0833 56.4999C47.0833 51.2992 51.2992 47.0833 56.4999 47.0833C61.7006 47.0833 65.9166 51.2992 65.9166 56.4999Z" fill="#183F6B"/>
</svg>
