<svg width="67" height="67" viewBox="0 0 67 67" fill="none" xmlns="http://www.w3.org/2000/svg">
<g clip-path="url(#clip0_24_549)">
<path d="M33.5045 66.9768C33.4003 66.9749 33.3151 66.9878 32.8623 66.9941C11.2858 67.404 -3.92837 46.0742 2.80348 26.0706C3.3172 24.5481 4.75304 23.5192 6.35916 23.5582C18.6092 23.854 28.6428 31.179 33.4944 41.1433C33.5134 41.1627 40.9183 23.9451 60.6295 23.5582C62.2357 23.5192 63.6729 24.5481 64.1852 26.0706C70.9478 45.8691 55.7662 67.3793 33.5045 66.9768Z" fill="#00B2BD"/>
<path d="M34.1784 66.9969L33.4858 66.9767C33.2765 66.9854 33.0687 66.9911 32.8624 66.994C32.7059 66.8849 32.579 66.7386 32.4929 66.5683C29.6992 61.0515 26.5331 55.6545 23.0842 50.5216C20.8827 49.1144 18.2996 48.5971 15.7665 49.3859C15.1575 49.5749 14.5096 49.2344 14.3206 48.6268C14.1315 48.0179 14.4706 47.3699 15.0796 47.1809C16.8296 46.6389 18.7167 46.5419 20.644 46.9962C17.3749 42.4185 13.8547 38.0253 10.0996 33.837C9.67393 33.3622 9.71433 32.632 10.1891 32.2063C10.6639 31.7806 11.3926 31.821 11.8197 32.2958C14.182 34.9308 16.4649 37.6596 18.6497 40.4635C18.6988 39.4216 18.8777 38.3898 19.1894 37.3898C19.2807 37.0975 19.4842 36.8534 19.7553 36.711C20.0264 36.5687 20.343 36.5398 20.6354 36.6307C20.9277 36.722 21.1718 36.9255 21.3141 37.1966C21.4564 37.4677 21.4853 37.7843 21.3944 38.0767C20.7927 40.006 20.7941 42.0869 21.3973 44.0956C21.5426 44.3861 28.0706 52.726 34.5522 65.525C34.8163 66.0459 34.6474 66.6751 34.1784 66.9969Z" fill="#E7EBF0"/>
<path d="M9.73637 53.7369C10.329 54.9839 8.62752 56.0341 7.7829 54.9422C1.70274 47.0814 -0.671953 36.3995 2.8035 26.0707C3.31723 24.5483 4.75307 23.5194 6.35918 23.5583C11.2713 23.6774 15.8274 24.9261 19.8356 27.022C21.0557 27.6599 20.3293 29.5082 18.9976 29.1583C16.7313 28.5626 14.3507 28.217 11.8803 28.1575C10.2742 28.1185 8.83835 29.1474 8.32463 30.6699C5.6443 38.6335 6.44303 46.8077 9.73637 53.7369ZM63.9096 30.3406C46.1146 31.0041 31.5594 47.2386 34.3602 66.01C34.4309 66.4823 34.1025 66.9915 33.4857 66.9768C33.1247 66.9682 32.806 66.7329 32.669 66.3996C24.3422 46.0906 39.4095 23.9747 60.6296 23.5582C62.2357 23.5192 63.673 24.5481 64.1853 26.0706C64.5994 27.2829 65.002 28.8923 65.002 28.9523C65.1507 29.6508 64.6268 30.3131 63.9096 30.3406Z" fill="#007C84" fill-opacity="0.55"/>
<path d="M56.8907 33.8357C53.1734 37.9946 49.6408 42.4074 46.3579 46.9949C48.2764 46.5435 50.1698 46.639 51.9093 47.181C52.1909 47.2684 52.4285 47.4601 52.5731 47.7171C52.7178 47.974 52.7587 48.2765 52.6874 48.5626C52.5278 49.2002 51.8257 49.5697 51.1974 49.3774C48.6802 48.6068 46.116 49.1088 43.9061 50.5201C40.4344 55.6607 37.2678 61.0009 34.4228 66.5131C34.3478 66.6589 34.2328 66.7803 34.0914 66.8633C33.9499 66.9462 33.7878 66.9872 33.6239 66.9815L33.4939 66.9767C33.3153 66.9695 33.1425 66.911 32.9962 66.8081C32.85 66.7053 32.7364 66.5625 32.6692 66.3969C32.6011 66.2306 32.5344 66.0637 32.4693 65.8961C32.4252 65.7817 32.4059 65.6592 32.4127 65.5367C32.4196 65.4143 32.4525 65.2946 32.5092 65.1859C35.3627 59.6838 38.5322 54.3514 42.0016 49.2155C42.0521 49.1058 42.1199 49.0048 42.205 48.9139C44.4369 45.6234 45.5624 44.2037 45.5933 44.0955C46.1965 42.0868 46.198 40.0059 45.5962 38.0765C45.4072 37.4675 45.7463 36.8211 46.3553 36.6306C46.9642 36.4401 47.6107 36.7807 47.8012 37.3896C48.1126 38.3927 48.2945 39.4314 48.3424 40.4806C50.5251 37.6762 52.8026 34.9467 55.1709 32.2971C55.5951 31.8209 56.3253 31.7805 56.8001 32.2062C56.9132 32.3071 57.0053 32.4294 57.0711 32.5659C57.1369 32.7025 57.1751 32.8507 57.1835 33.0021C57.192 33.1535 57.1704 33.305 57.1202 33.4481C57.0699 33.5911 56.9919 33.7228 56.8907 33.8357Z" fill="#E7EBF0"/>
<path d="M46.3145 11.0241V14.675C46.3145 16.587 44.7633 18.1383 42.8512 18.1383H38.7601V22.2294C38.7601 24.1414 37.2089 25.6927 35.2968 25.6927H31.6459C29.7338 25.6927 28.1826 24.1414 28.1826 22.2294V18.1383H24.0915C22.1795 18.1383 20.6282 16.587 20.6282 14.675V11.0241C20.6282 9.11202 22.1795 7.56074 24.0915 7.56074H28.1826V3.46968C28.1826 1.55763 29.7338 0.00634766 31.6459 0.00634766H35.2968C37.2089 0.00634766 38.7601 1.55763 38.7601 3.46968V7.56074H42.8512C44.7633 7.56074 46.3145 9.11202 46.3145 11.0241Z" fill="#00B2BD"/>
<path d="M31.6459 25.6926C29.7331 25.6926 28.1826 24.142 28.1826 22.2293V21.2706C28.1826 20.1723 29.0291 19.1488 30.3865 19.1486C31.5595 19.1485 32.5116 20.099 32.5107 21.2721C32.5096 22.7538 32.5084 24.4442 32.5107 24.8239C32.5113 24.9378 32.4894 25.0507 32.4462 25.1561C32.403 25.2615 32.3394 25.3574 32.259 25.4381C32.1786 25.5189 32.0831 25.5829 31.9779 25.6266C31.8726 25.6703 31.7598 25.6927 31.6459 25.6926ZM35.9751 2.89233C34.0623 2.89233 32.5117 4.44289 32.5117 6.35566V9.29227C32.5117 9.59845 32.3901 9.89209 32.1736 10.1086C31.9571 10.3251 31.6635 10.4467 31.3573 10.4467H28.4204C26.5079 10.4467 24.9572 11.998 24.9572 13.9105V14.6912C24.9556 17.5024 20.6282 17.665 20.6282 14.6749V11.0239C20.6282 9.11117 22.1787 7.56061 24.0915 7.56061H28.1826V3.46955C28.1826 1.55678 29.7331 0.00621916 31.6459 0.00621916C35.5778 0.00621916 35.7104 -0.053379 36.4306 0.196414C37.9064 0.708121 37.537 2.89233 35.9751 2.89233Z" fill="#E7EBF0"/>
</g>
<defs>
<clipPath id="clip0_24_549">
<rect width="67" height="67" fill="white"/>
</clipPath>
</defs>
</svg>
