<svg width="65" height="63" viewBox="0 0 65 63" fill="none" xmlns="http://www.w3.org/2000/svg">
<path d="M24.0891 62.675H40.5271C41.2982 62.675 42.0376 62.3687 42.5829 61.8235C43.1281 61.2782 43.4344 60.5388 43.4344 59.7677V56.2207C42.7281 50.8016 42.7776 46.0077 43.4344 40.2936V37.1052L25.4474 34.2632L21.1819 50.3282V59.7687C21.1821 60.5396 21.4886 61.2788 22.0337 61.8238C22.5789 62.3688 23.3182 62.675 24.0891 62.675ZM56.6276 18.4762L57.3688 15.6002C57.3916 15.5114 57.4435 15.4329 57.5162 15.377C57.5888 15.3212 57.6781 15.2912 57.7698 15.292C57.8614 15.2928 57.9502 15.3242 58.0219 15.3813C58.0936 15.4383 58.1441 15.5177 58.1655 15.6069L58.8552 18.4743C59.0138 19.1346 59.3394 19.743 59.8009 20.2412C60.2624 20.7394 60.8442 21.1105 61.4905 21.319L62.9605 21.7935C63.0439 21.8205 63.1165 21.8734 63.1676 21.9446C63.2187 22.0157 63.2458 22.1014 63.2448 22.189C63.2438 22.2766 63.2147 22.3616 63.162 22.4316C63.1092 22.5016 63.0354 22.5528 62.9515 22.5778L61.5561 22.9916C60.8849 23.191 60.2785 23.5646 59.7987 24.0746C59.3189 24.5846 58.9829 25.2126 58.8248 25.8947L58.187 28.6461C58.166 28.7367 58.1149 28.8175 58.042 28.8753C57.9691 28.9331 57.8787 28.9644 57.7857 28.9641C57.6927 28.9638 57.6025 28.9319 57.53 28.8737C57.4575 28.8154 57.4069 28.7343 57.3865 28.6435L56.7806 25.9527C56.627 25.2704 56.2956 24.6409 55.8199 24.1282C55.3442 23.6155 54.7413 23.2379 54.0724 23.0338L52.5343 22.5642C52.4517 22.539 52.3791 22.4882 52.3269 22.4193C52.2747 22.3504 52.2456 22.2667 52.2438 22.1803C52.2419 22.0939 52.2674 22.0091 52.3166 21.938C52.3657 21.8668 52.4361 21.8131 52.5176 21.7843L54.1104 21.2221C54.723 21.0059 55.273 20.6424 55.712 20.1635C56.1509 19.6847 56.4654 19.1053 56.6276 18.4762Z" fill="#00B2BD"/>
<path d="M43.4344 40.2915H28.8469C28.5461 40.2915 28.2481 40.3508 27.9702 40.4659C27.6922 40.581 27.4397 40.7498 27.2269 40.9625C27.0142 41.1753 26.8454 41.4278 26.7303 41.7058C26.6152 41.9837 26.5559 42.2817 26.5559 42.5825V53.9276C26.5559 54.5352 26.7973 55.1179 27.2269 55.5476C27.6566 55.9772 28.2393 56.2186 28.8469 56.2186H43.4344V40.2915Z" fill="white"/>
<path d="M39.7464 46.4227H37.0142V43.6904H33.3487V46.4227H30.6167V50.0879H33.3487V52.8202H37.0142V50.0879H39.7464V46.4227Z" fill="#FF4E4E"/>
<path d="M55.9734 56.2188H60.9947C61.8507 56.2188 62.6716 56.5589 63.2768 57.1642C63.8821 57.7695 64.2221 58.5904 64.2221 59.4464C64.2222 59.8703 64.1388 60.2901 63.9767 60.6817C63.8145 61.0734 63.5768 61.4293 63.2771 61.7291C62.9774 62.0289 62.6216 62.2667 62.23 62.429C61.8383 62.5912 61.4186 62.6748 60.9947 62.6748H55.9734C55.4981 60.3201 55.3846 58.1202 55.9734 56.2188Z" fill="#F2F2FC"/>
<path d="M50.9532 56.2188H55.9735V62.6748H50.9532C50.0972 62.6748 49.2762 62.3347 48.6709 61.7294C48.0656 61.1241 47.7256 60.3032 47.7256 59.4472C47.7255 59.0232 47.8089 58.6034 47.971 58.2118C48.1332 57.8201 48.3709 57.4642 48.6707 57.1644C48.9704 56.8646 49.3262 56.6268 49.7179 56.4645C50.1095 56.3023 50.5293 56.2187 50.9532 56.2188Z" fill="#00A3AD"/>
<path d="M58.8957 48.6085C57.7277 49.2509 56.3806 49.4906 55.0626 49.2906C53.7447 49.0906 52.5294 48.462 51.6045 47.502L50.0822 44.7345C49.7665 43.4394 49.8863 42.0763 50.423 40.856C50.9597 39.6358 51.8835 38.6264 53.0516 37.9839C54.2196 37.3414 55.5667 37.1016 56.8847 37.3016C58.2027 37.5016 59.4181 38.1302 60.3429 39.0903L61.8652 41.8578C62.1808 43.153 62.061 44.516 61.5242 45.7363C60.9875 46.9565 60.0637 47.9659 58.8957 48.6085Z" fill="#F2F2FC"/>
<path d="M50.0833 44.7343C50.3375 45.7747 50.8625 46.7292 51.6051 47.501L61.8638 41.858C61.6095 40.8176 61.0843 39.8631 60.3417 39.0913L50.0833 44.7343Z" fill="#00A3AD"/>
<path d="M57.5989 10.5504C58.0125 10.5504 58.3477 10.2151 58.3477 9.80156C58.3477 9.38799 58.0125 9.05273 57.5989 9.05273C57.1854 9.05273 56.8501 9.38799 56.8501 9.80156C56.8501 10.2151 57.1854 10.5504 57.5989 10.5504Z" fill="#00B2BD"/>
<path d="M21.1819 32.0083H43.4342V37.1031H21.1819V32.0083Z" fill="#007C84"/>
<path d="M27.2976 34.9515H45.4749V31.0326C45.4746 30.4318 45.2357 29.8556 44.8107 29.4309C44.3858 29.0062 43.8095 28.7676 43.2087 28.7676H29.7561C28.5322 30.8787 27.6005 32.9537 27.2976 34.9515Z" fill="#00B2BD"/>
<path d="M21.4076 28.7671C20.8067 28.7674 20.2306 29.0063 19.8059 29.4313C19.3812 29.8562 19.1426 30.4324 19.1426 31.0333V34.9522H27.2977L29.7571 28.7681L21.4076 28.7671Z" fill="#007C84"/>
<path d="M28.4671 32.0083H21.1819V50.3261L28.4671 32.0083Z" fill="#007C84"/>
<path d="M25.3175 15.73C25.2049 15.73 25.0941 15.7024 24.9946 15.6497C24.8952 15.597 24.8101 15.5207 24.7469 15.4276C24.6837 15.3345 24.6443 15.2273 24.632 15.1154C24.6198 15.0035 24.6351 14.8903 24.6766 14.7857L30.2404 0.761831C30.308 0.591793 30.4403 0.455553 30.6083 0.383083C30.7763 0.310613 30.9662 0.307849 31.1362 0.375399C31.3063 0.442949 31.4425 0.57528 31.515 0.743281C31.5874 0.911282 31.5902 1.10119 31.5227 1.27123L25.9589 15.2943C25.908 15.4229 25.8196 15.5332 25.7052 15.6109C25.5908 15.6885 25.4557 15.7301 25.3175 15.73Z" fill="#00B2BD" fill-opacity="0.24"/>
<path d="M6.0657 4.08754L6.80724 1.21225C6.83015 1.12354 6.88208 1.04503 6.95476 0.989234C7.02743 0.933434 7.11668 0.903541 7.20831 0.904311C7.29993 0.905082 7.38866 0.936471 7.46039 0.993485C7.53212 1.0505 7.58272 1.12986 7.60414 1.21895L8.29385 4.08635C8.45245 4.74642 8.77804 5.35465 9.23938 5.85266C9.70071 6.35068 10.2823 6.72176 10.9283 6.93031L12.3984 7.40482C12.4818 7.43181 12.5543 7.48476 12.6054 7.55593C12.6566 7.6271 12.6836 7.71276 12.6825 7.80038C12.6815 7.88801 12.6525 7.973 12.5997 8.04294C12.5469 8.11288 12.4731 8.16411 12.3891 8.18912L10.9938 8.60294C10.3223 8.8023 9.71578 9.17608 9.23586 9.68618C8.75594 10.1963 8.41982 10.8245 8.26173 11.5068L7.62464 14.2575C7.60371 14.3482 7.55262 14.429 7.47974 14.4868C7.40685 14.5446 7.31649 14.576 7.22347 14.5757C7.13044 14.5754 7.04027 14.5436 6.96773 14.4853C6.89518 14.4271 6.84457 14.3459 6.82418 14.2552L6.21823 11.5647C6.06471 10.8825 5.73328 10.253 5.25765 9.74033C4.78201 9.22766 4.17911 8.85005 3.51025 8.6459L1.9722 8.17631C1.88952 8.15105 1.81692 8.10034 1.76476 8.03139C1.7126 7.96244 1.68354 7.87879 1.68173 7.79235C1.67992 7.70592 1.70544 7.62111 1.75466 7.55004C1.80389 7.47897 1.87429 7.42525 1.95585 7.39655L3.54847 6.83414C4.16114 6.61789 4.7112 6.25425 5.15018 5.77528C5.58916 5.2963 5.90357 4.71669 6.0657 4.08754Z" fill="#00B2BD"/>
<path d="M24.3748 13.3726L27.1718 14.4824C27.3681 14.5603 27.5253 14.713 27.6091 14.9068C27.6928 15.1006 27.696 15.3198 27.6182 15.516L26.6819 17.8758L22.4048 16.1787L23.3408 13.8193C23.3793 13.7221 23.4366 13.6334 23.5095 13.5583C23.5823 13.4832 23.6692 13.4232 23.7652 13.3817C23.8612 13.3402 23.9645 13.3181 24.0691 13.3165C24.1737 13.3149 24.2776 13.334 24.3748 13.3726Z" fill="#00B2BD" fill-opacity="0.24"/>
<path d="M22.3342 15.6172L27.1175 17.5149C27.4528 17.648 27.7216 17.9089 27.8646 18.2401C28.0076 18.5714 28.0132 18.9459 27.8801 19.2813L26.2794 23.3161L18.9663 20.4144L20.5668 16.3806C20.6327 16.2144 20.7306 16.0627 20.8551 15.9343C20.9796 15.806 21.1281 15.7034 21.2923 15.6325C21.4564 15.5616 21.6329 15.5238 21.8117 15.5211C21.9905 15.5185 22.1681 15.5512 22.3342 15.6172Z" fill="white"/>
<path d="M21.999 15.4845L27.451 17.6478C27.5733 17.6963 27.6848 17.7683 27.7792 17.8598C27.8736 17.9514 27.949 18.0606 28.0012 18.1813C28.0534 18.302 28.0813 18.4318 28.0833 18.5633C28.0853 18.6948 28.0613 18.8254 28.0128 18.9476L26.2791 23.317L18.9661 20.4153L20.6996 16.0459C20.7975 15.7992 20.9894 15.6014 21.233 15.4962C21.4767 15.3909 21.7522 15.3867 21.999 15.4845Z" fill="#00A3AD"/>
<path d="M17.4447 51.1153L6.31738 46.7012L16.7615 20.3742C16.837 20.1839 16.9492 20.0103 17.0917 19.8634C17.2342 19.7165 17.4043 19.5991 17.5922 19.5179C17.7801 19.4367 17.9822 19.3934 18.1869 19.3903C18.3916 19.3872 18.5948 19.4245 18.7851 19.5L27.0147 22.7649C27.205 22.8404 27.3785 22.9526 27.5254 23.0951C27.6724 23.2377 27.7898 23.4078 27.8709 23.5957C27.9521 23.7836 27.9955 23.9857 27.9985 24.1904C28.0016 24.3951 27.9643 24.5984 27.8888 24.7887L26.6452 27.9233C26.4726 28.0874 26.3378 28.2871 26.25 28.5084C26.1621 28.7298 26.1235 28.9676 26.1366 29.2054L25.0788 31.872C24.7829 32.2377 24.6055 32.6849 24.57 33.154L23.5121 35.8204C23.1949 36.1733 23.0144 36.6282 23.0035 37.1027L21.9457 39.7691C21.6566 40.1388 21.48 40.5838 21.4369 41.0512L20.3797 43.7178C20.1115 44.0991 19.9373 44.5385 19.8711 45L17.4447 51.1153Z" fill="#F2F2FC"/>
<path d="M9.68479 49.1309L13.3351 50.579L10.5944 57.4865L6.94409 56.0382L9.68479 49.1309Z" fill="#00A3AD"/>
<path d="M3.56957 54.2977L14.2419 58.5325C14.6032 58.6759 14.8927 58.9569 15.0468 59.3138C15.2009 59.6706 15.2069 60.074 15.0636 60.4353L14.1621 62.7078L0.765625 57.3924L1.66737 55.1199C1.81072 54.7587 2.09165 54.4692 2.4484 54.315C2.80514 54.1609 3.2085 54.1548 3.56977 54.2979L3.56957 54.2977Z" fill="#00B2BD" fill-opacity="0.24"/>
<path d="M18.4481 49.9021L6.39732 45.1211C5.84538 44.9021 5.22043 45.172 5.00146 45.724L4.35332 47.3577C4.13434 47.9096 4.40426 48.5346 4.9562 48.7535L17.007 53.5345C17.5589 53.7535 18.1838 53.4836 18.4028 52.9316L19.051 51.2979C19.2699 50.746 19 50.121 18.4481 49.9021Z" fill="#00B2BD" fill-opacity="0.24"/>
<path d="M24.3588 27.0164C24.1887 26.9489 23.9989 26.9518 23.831 27.0243C23.663 27.0969 23.5308 27.2332 23.4633 27.4032C23.3959 27.5732 23.3988 27.7631 23.4713 27.931C23.5439 28.099 23.6801 28.2312 23.8502 28.2986L26.137 29.2051L26.6457 27.923L24.3588 27.0164ZM22.7924 30.9648C22.6223 30.8974 22.4325 30.9003 22.2645 30.9728C22.0966 31.0453 21.9644 31.1816 21.8969 31.3517C21.8295 31.5217 21.8323 31.7116 21.9049 31.8795C21.9774 32.0474 22.1137 32.1797 22.2838 32.2471L24.5696 33.1536L25.0784 31.8715L22.7924 30.9648ZM19.7045 34.3099C19.5344 34.2425 19.3445 34.2453 19.1766 34.3179C19.0087 34.3904 18.8765 34.5267 18.809 34.6967C18.7416 34.8668 18.7444 35.0566 18.817 35.2246C18.8895 35.3925 19.0258 35.5247 19.1958 35.5922L23.004 37.103L23.5126 35.8208L19.7045 34.3099ZM19.6593 38.8622C19.5749 38.8272 19.4843 38.8094 19.3929 38.8098C19.3014 38.8102 19.211 38.8287 19.1268 38.8643C19.0426 38.9 18.9664 38.952 18.9025 39.0174C18.8386 39.0828 18.7883 39.1602 18.7546 39.2452C18.7209 39.3301 18.7044 39.421 18.7061 39.5124C18.7078 39.6038 18.7277 39.6939 18.7645 39.7776C18.8014 39.8612 18.8545 39.9367 18.9208 39.9997C18.9871 40.0626 19.0653 40.1118 19.1507 40.1442L21.4366 41.0507L21.9454 39.7686L19.6593 38.8622ZM18.0927 42.811C17.9227 42.7436 17.7328 42.7464 17.5649 42.819C17.397 42.8915 17.2647 43.0278 17.1973 43.1979C17.1298 43.3679 17.1327 43.5578 17.2052 43.7257C17.2778 43.8936 17.4141 44.0258 17.5841 44.0933L19.87 44.9998L20.3796 43.7175L18.0927 42.811Z" fill="#00B2BD" fill-opacity="0.24"/>
</svg>
