<svg width="58" height="67" viewBox="0 0 58 67" fill="none" xmlns="http://www.w3.org/2000/svg">
<path d="M55.9165 20.834V1.83398L46.4165 1.83398V27.1673L55.9165 20.834Z" stroke="#00B2BD" stroke-width="3" stroke-linejoin="round"/>
<path d="M46.4165 1.83398V27.1673V27.1673L46.4165 65.1673H2.08317L2.08317 1.83398L46.4165 1.83398Z" stroke="#00B2BD" stroke-width="3" stroke-linejoin="round"/>
<path d="M38.4998 19.251H39.9998C39.9998 18.4225 39.3282 17.751 38.4998 17.751V19.251ZM38.4998 28.751V30.251C39.3282 30.251 39.9998 29.5794 39.9998 28.751H38.4998ZM28.9998 19.251H27.4998C27.4998 20.0794 28.1713 20.751 28.9998 20.751V19.251ZM28.9998 9.75098H30.4998C30.4998 8.92255 29.8282 8.25098 28.9998 8.25098V9.75098ZM19.4998 9.75098V8.25098C18.6713 8.25098 17.9998 8.92255 17.9998 9.75098H19.4998ZM19.4998 19.251V20.751C20.3282 20.751 20.9998 20.0794 20.9998 19.251H19.4998ZM9.99976 19.251V17.751C9.17133 17.751 8.49976 18.4225 8.49976 19.251H9.99976ZM9.99976 28.751L8.49976 28.751C8.49976 29.5794 9.17133 30.251 9.99976 30.251V28.751ZM19.4998 28.751H20.9998C20.9998 27.9225 20.3282 27.251 19.4998 27.251V28.751ZM19.4998 38.251H17.9998C17.9998 39.0794 18.6713 39.751 19.4998 39.751L19.4998 38.251ZM28.9998 38.251V39.751C29.8282 39.751 30.4998 39.0794 30.4998 38.251H28.9998ZM28.9998 28.751V27.251C28.1713 27.251 27.4998 27.9225 27.4998 28.751H28.9998ZM36.9998 19.251V28.751H39.9998V19.251H36.9998ZM28.9998 20.751H38.4998V17.751H28.9998V20.751ZM27.4998 9.75098V19.251H30.4998V9.75098H27.4998ZM19.4998 11.251L28.9998 11.251V8.25098L19.4998 8.25098V11.251ZM20.9998 19.251V9.75098H17.9998V19.251H20.9998ZM9.99976 20.751H19.4998V17.751H9.99976V20.751ZM11.4998 28.751V19.251H8.49976V28.751L11.4998 28.751ZM19.4998 27.251H9.99976V30.251H19.4998V27.251ZM20.9998 38.251V28.751H17.9998V38.251H20.9998ZM28.9998 36.751H19.4998L19.4998 39.751H28.9998V36.751ZM27.4998 28.751V38.251H30.4998V28.751H27.4998ZM38.4998 27.251H28.9998V30.251H38.4998V27.251Z" fill="#00B2BD"/>
<path d="M9.99976 47.751H38.4998" stroke="#00B2BD" stroke-width="3" stroke-linejoin="round"/>
<path d="M9.99976 57.251H38.4998" stroke="#00B2BD" stroke-width="3" stroke-linejoin="round"/>
</svg>
