<svg width="70" height="69" viewBox="0 0 70 69" fill="none" xmlns="http://www.w3.org/2000/svg">
<path d="M31.171 64.3573C24.9447 66.4177 18.227 63.0404 16.1667 56.8141L3.73146 19.2347C1.67113 13.0084 5.04836 6.29073 11.2747 4.2304L15.0326 2.98688C19.1835 1.61332 23.662 3.86481 25.0355 8.01571L25.533 9.51888C26.6318 12.8396 24.8306 16.4224 21.5099 17.5212V17.5212C18.1892 18.62 16.388 22.2028 17.4868 25.5235L23.4557 43.5616C24.5546 46.8823 28.1373 48.6835 31.458 47.5847V47.5847C34.7788 46.4858 38.3615 48.287 39.4604 51.6077L39.9578 53.1109C41.3313 57.2618 39.0798 61.7403 34.9289 63.1138L31.171 64.3573Z" stroke="#00B2BD" stroke-width="3" stroke-linejoin="round"/>
<path d="M44 21.5L50 29.5L58 11.5L64.109 27.7907C66.9594 35.3918 61.3404 43.5 53.2225 43.5V43.5C45.556 43.5 39.9881 36.2102 42.0053 28.8139L44 21.5Z" stroke="#00B2BD" stroke-width="3.33333" stroke-linejoin="round"/>
</svg>
