<svg width="67" height="67" viewBox="0 0 67 67" fill="none" xmlns="http://www.w3.org/2000/svg">
<path fill-rule="evenodd" clip-rule="evenodd" d="M8.375 8.37516C8.375 6.83337 9.62487 5.5835 11.1667 5.5835H55.8333C57.3751 5.5835 58.625 6.83337 58.625 8.37516V55.8335C58.625 57.3753 57.3751 58.6252 55.8333 58.6252H11.1667C9.62487 58.6252 8.375 57.3753 8.375 55.8335V8.37516ZM13.9583 11.1668V53.0418H53.0417V11.1668H13.9583Z" fill="#00B2BD"/>
<path fill-rule="evenodd" clip-rule="evenodd" d="M26.5209 37.6877C26.5209 36.1459 27.7707 34.896 29.3125 34.896H37.6875C39.2293 34.896 40.4792 36.1459 40.4792 37.6877V55.8335C40.4792 57.3753 39.2293 58.6252 37.6875 58.6252H29.3125C27.7707 58.6252 26.5209 57.3753 26.5209 55.8335V37.6877ZM32.1042 40.4793V53.0418H34.8959V40.4793H32.1042Z" fill="#183F6B"/>
<path fill-rule="evenodd" clip-rule="evenodd" d="M5.58337 53.042H61.4167V58.6253H5.58337V53.042Z" fill="#183F6B"/>
<path fill-rule="evenodd" clip-rule="evenodd" d="M39.0834 23.7293H27.9167V18.146H39.0834V23.7293Z" fill="#183F6B"/>
<path fill-rule="evenodd" clip-rule="evenodd" d="M36.2917 15.3543V26.521H30.7084V15.3543H36.2917Z" fill="#183F6B"/>
<path fill-rule="evenodd" clip-rule="evenodd" d="M48.8542 44.6668H44.6667V39.0835H48.8542V44.6668Z" fill="#183F6B"/>
<path fill-rule="evenodd" clip-rule="evenodd" d="M48.8542 32.1043H44.6667V26.521H48.8542V32.1043Z" fill="#183F6B"/>
<path fill-rule="evenodd" clip-rule="evenodd" d="M22.3334 44.6668H18.1459V39.0835H22.3334V44.6668Z" fill="#183F6B"/>
<path fill-rule="evenodd" clip-rule="evenodd" d="M22.3334 32.1043H18.1459V26.521H22.3334V32.1043Z" fill="#183F6B"/>
</svg>
