<svg width="57" height="59" viewBox="0 0 57 59" fill="none" xmlns="http://www.w3.org/2000/svg">
<path d="M32.4917 35.6622L32.4906 35.6628C31.2257 36.4604 29.7609 36.8836 28.2656 36.8836C26.7703 36.8836 25.3055 36.4604 24.0406 35.6628L24.0395 35.6622L15.4558 30.2607L15.4551 30.2603L11.9688 28.0639V4.82733C11.9843 4.06706 12.2993 3.34346 12.8455 2.81396C13.3944 2.28187 14.1319 1.98925 14.8963 2.0003L14.9071 2.00046H14.918H41.6133H41.6241L41.635 2.0003C42.3993 1.98925 43.1369 2.28187 43.6858 2.81396C44.232 3.34347 44.547 4.06709 44.5625 4.82737V28.0639L41.0761 30.2603L41.0754 30.2607L32.4917 35.6622Z" stroke="#183F6B" stroke-width="3"/>
<path d="M32.4917 35.6623L32.4906 35.663C31.2257 36.4605 29.7609 36.8838 28.2656 36.8838C26.7703 36.8838 25.3055 36.4605 24.0406 35.663L24.0395 35.6623L16.1562 30.7016V11.8615C16.5667 11.7966 16.9714 11.6936 17.365 11.5533C18.2735 11.2295 19.1019 10.7143 19.7941 10.0426C20.4863 9.37082 21.0261 8.55823 21.377 7.65978C21.5343 7.25709 21.6519 6.84136 21.7291 6.41846H34.8022C34.8793 6.84136 34.997 7.25709 35.1543 7.65978C35.5052 8.55823 36.045 9.37082 36.7371 10.0426C37.4293 10.7143 38.2577 11.2295 39.1663 11.5533C39.5599 11.6936 39.9646 11.7966 40.375 11.8615V30.7016L32.4917 35.6623Z" stroke="#183F6B" stroke-width="3"/>
<path d="M19.4889 37.5832L19.4899 37.5838L21.1544 38.6307L21.1547 38.6309L21.8863 39.0908C21.8865 39.0909 21.8867 39.091 21.8869 39.0911C23.7969 40.2942 26.0083 40.9326 28.2656 40.9326C30.5227 40.9326 32.7338 40.2943 34.6437 39.0915C34.6438 39.0915 34.6439 39.0914 34.644 39.0914C34.6443 39.0912 34.6446 39.091 34.645 39.0908L35.3765 38.6309L35.3769 38.6307L37.0414 37.5838L37.0424 37.5832L55.0312 26.2497V49.7036C55.0312 51.527 54.3069 53.2757 53.0176 54.565C51.7283 55.8543 49.9796 56.5786 48.1562 56.5786H8.375C6.55164 56.5786 4.80295 55.8543 3.51364 54.565C2.22433 53.2757 1.5 51.527 1.5 49.7036V26.2497L19.4889 37.5832Z" stroke="#00B2BD" stroke-width="3"/>
<path d="M21.6803 37.8444L21.6776 37.8487L21.6772 37.8493L21.7122 37.8843C21.7129 37.8837 21.7135 37.8831 21.7141 37.8824L21.6803 37.8444ZM21.6803 37.8444L21.1266 37.2215M21.6803 37.8444L21.9844 37.3608L21.1266 37.2215M21.1266 37.2215L21.0544 37.2097L21.0344 37.2065L21.1266 37.2215Z" stroke="#00B2BD" stroke-width="5"/>
<path d="M23.9609 29.5661L23.9522 29.5657L23.9435 29.5657C23.3439 29.5632 22.7649 29.3465 22.311 28.9548C21.9135 28.6099 21.1509 27.8149 20.9043 26.6296C20.6639 25.474 20.8909 23.8313 22.6885 21.7223C22.7828 21.6122 22.9169 21.544 23.0614 21.5328C23.206 21.5215 23.3492 21.5681 23.4594 21.6624C23.5696 21.7567 23.6379 21.8909 23.6492 22.0355C23.6605 22.1801 23.6139 22.3233 23.5196 22.4335L23.5186 22.4347C22.6015 23.5136 22.0368 24.5482 21.9279 25.5244C21.8146 26.5386 22.2012 27.4161 23.0139 28.1166C23.2093 28.2922 23.4514 28.4074 23.7109 28.4483C23.9729 28.4895 24.2413 28.4531 24.4828 28.3436L24.5004 28.3356L24.5173 28.3264C25.817 27.6119 26.7892 26.4218 27.2301 25.0061C28.079 22.8146 29.1635 21.817 30.075 21.3669C30.9931 20.9137 31.8077 20.9801 32.1747 21.05C33.0499 21.2397 33.8341 21.7227 34.3973 22.419C34.9616 23.1168 35.27 23.9868 35.2711 24.8843C35.271 26.9087 34.7648 28.1826 33.85 28.8612C33.4453 29.1317 32.9849 29.3078 32.5029 29.3765C32.018 29.4455 31.5238 29.404 31.0572 29.255C30.9201 29.2098 30.8064 29.1121 30.741 28.9833C30.6755 28.8543 30.6638 28.7046 30.7084 28.567C30.7535 28.4293 30.8513 28.3151 30.9805 28.2495C31.1097 28.1839 31.2596 28.1722 31.3974 28.2171L31.3974 28.2171L31.4061 28.2198C31.6991 28.3093 32.0076 28.3362 32.3116 28.2988C32.6156 28.2614 32.9083 28.1605 33.1708 28.0026L33.2399 27.9611L33.2924 27.9C33.6504 27.4833 33.9144 26.9942 34.0661 26.4661C34.2145 25.9498 34.2522 25.4082 34.1771 24.8766C34.1678 24.2584 33.9567 23.6597 33.5753 23.1722C33.1861 22.6748 32.642 22.3216 32.0292 22.1687L32.012 22.1644L31.9945 22.1613C31.2003 22.022 30.451 22.3353 29.8292 22.9241C29.2125 23.508 28.6904 24.3859 28.2971 25.4785L28.2946 25.4854L28.2923 25.4924C27.747 27.1588 26.5815 28.5513 25.038 29.3817C24.6958 29.5176 24.3289 29.5804 23.9609 29.5661Z" fill="#183F6B" stroke="#183F6B"/>
<path d="M21.4399 25.7031H19.3462C19.2012 25.7031 19.0621 25.6455 18.9595 25.5429C18.8569 25.4404 18.7993 25.3013 18.7993 25.1562C18.7993 25.0112 18.8569 24.8721 18.9595 24.7696C19.0621 24.667 19.2012 24.6094 19.3462 24.6094H21.4399C21.585 24.6094 21.7241 24.667 21.8266 24.7696C21.9292 24.8721 21.9868 25.0112 21.9868 25.1562C21.9868 25.3013 21.9292 25.4404 21.8266 25.5429C21.7241 25.6455 21.585 25.7031 21.4399 25.7031ZM37.164 25.7031H34.7248C34.5797 25.7031 34.4406 25.6455 34.3381 25.5429C34.2355 25.4404 34.1779 25.3013 34.1779 25.1562C34.1779 25.0112 34.2355 24.8721 34.3381 24.7696C34.4406 24.667 34.5797 24.6094 34.7248 24.6094H37.164C37.309 24.6094 37.4481 24.667 37.5507 24.7696C37.6533 24.8721 37.7109 25.0112 37.7109 25.1562C37.7109 25.3013 37.6533 25.4404 37.5507 25.5429C37.4481 25.6455 37.309 25.7031 37.164 25.7031Z" fill="#183F6B" stroke="#183F6B"/>
</svg>
