<svg width="67" height="67" viewBox="0 0 67 67" fill="none" xmlns="http://www.w3.org/2000/svg">
<path d="M56.6271 27.053C55.5431 27.053 54.6643 26.1741 54.6643 25.0901C54.6643 13.42 45.17 3.92578 33.5 3.92578C21.8299 3.92578 12.3357 13.42 12.3357 25.0901C12.3357 26.1741 11.4568 27.053 10.3728 27.053C9.28876 27.053 8.40991 26.1741 8.40991 25.0901C8.40991 11.2553 19.6653 0 33.5 0C47.3347 0 58.59 11.2553 58.59 25.0901C58.59 26.1742 57.7113 27.053 56.6271 27.053Z" fill="#00B2BD"/>
<path d="M56.6272 27.053C55.5431 27.053 54.6643 26.1741 54.6643 25.0901C54.6643 13.42 45.17 3.92578 33.5 3.92578V0C47.3347 0 58.5901 11.2553 58.5901 25.0901C58.5901 26.1742 57.7113 27.053 56.6272 27.053Z" fill="#00B2BD"/>
<path d="M10.3728 48.0775H1.96289C0.878852 48.0775 0 47.1987 0 46.1146V25.0898C0 24.0058 0.878852 23.127 1.96289 23.127H10.3728C11.4569 23.127 12.3357 24.0058 12.3357 25.0898V46.1146C12.3357 47.1987 11.4569 48.0775 10.3728 48.0775Z" fill="#183F6B"/>
<path d="M41.91 62.7955H37.7051C36.621 62.7955 35.7422 61.9166 35.7422 60.8326C35.7422 59.7486 36.621 58.8697 37.7051 58.8697H41.91C48.9428 58.8697 54.6645 53.148 54.6645 46.1152C54.6645 45.0312 55.5433 44.1523 56.6273 44.1523C57.7114 44.1523 58.5902 45.0312 58.5902 46.1152C58.5901 55.3128 51.1074 62.7955 41.91 62.7955Z" fill="#00B2BD"/>
<path d="M49.2685 35.6021H49.129V24.9502C49.129 24.562 49.0139 24.1825 48.7982 23.8597C48.5826 23.537 48.276 23.2854 47.9174 23.1368C47.5588 22.9882 47.1641 22.9493 46.7834 23.025C46.4026 23.1007 46.0529 23.2876 45.7784 23.562C45.7782 23.562 39.6498 29.6885 36.7442 32.592C35.4392 33.9041 34.6908 35.7168 34.6908 37.565C34.6908 38.6491 35.5696 39.5279 36.6537 39.5279H45.2032V43.8725C45.2032 44.9565 46.0821 45.8354 47.1661 45.8354C48.2502 45.8354 49.129 44.9565 49.129 43.8725V39.5279H49.2685C50.3525 39.5279 51.2314 38.6491 51.2314 37.565C51.2314 36.481 50.3525 35.6021 49.2685 35.6021ZM45.2032 35.6021H39.3109C39.3777 35.5194 39.4486 35.4401 39.5235 35.3646C40.9937 33.8955 43.2931 31.5973 45.2032 29.6878V35.6021ZM29.2949 45.8354H18.7826C17.6986 45.8354 16.8197 44.9565 16.8197 43.8725C16.8197 42.0242 17.5681 40.2117 18.873 38.8995C21.2386 36.5356 25.7404 32.0354 27.332 30.4443V30.2064C27.332 28.3905 25.8548 26.9131 24.0388 26.9131C22.1954 26.9131 20.7455 28.4034 20.7455 30.2042C20.7455 31.2882 19.8666 32.1681 18.7826 32.1681C17.6986 32.1681 16.8197 31.2903 16.8197 30.2063V30.2042C16.8197 26.2422 20.0204 22.9873 24.0388 22.9873C28.0194 22.9873 31.2578 26.2258 31.2578 30.2064V31.2576C31.2578 31.7783 31.0509 32.2777 30.6826 32.6458C30.6826 32.6458 24.5538 38.7726 21.6522 41.6721C21.5773 41.7475 21.5064 41.8268 21.4397 41.9096H29.2948C30.3788 41.9096 31.2577 42.7884 31.2577 43.8725C31.2577 44.9565 30.379 45.8354 29.2949 45.8354Z" fill="#00B2BD"/>
<path d="M65.0371 48.0775H56.6272C55.5432 48.0775 54.6643 47.1987 54.6643 46.1146V25.0898C54.6643 24.0058 55.5432 23.127 56.6272 23.127H65.0371C66.1212 23.127 67 24.0058 67 25.0898V46.1146C67 47.1987 66.1212 48.0775 65.0371 48.0775Z" fill="#183F6B"/>
<path d="M33.5 66.9999C36.9064 66.9999 39.6679 64.2384 39.6679 60.832C39.6679 57.4255 36.9064 54.6641 33.5 54.6641C30.0935 54.6641 27.332 57.4255 27.332 60.832C27.332 64.2384 30.0935 66.9999 33.5 66.9999Z" fill="#183F6B"/>
<path d="M1.96289 48.0778H10.3728C11.4569 48.0778 12.3357 47.1989 12.3357 46.1149V35.6025H0V46.1149C0 47.1989 0.878852 48.0778 1.96289 48.0778ZM56.6272 48.0778H65.0371C66.1211 48.0778 67 47.1989 67 46.1149V35.6025H54.6643V46.1149C54.6643 47.1989 55.5431 48.0778 56.6272 48.0778Z" fill="#183F6B"/>
<path d="M36.6537 39.5283H45.2032V43.8729C45.2032 44.9569 46.0821 45.8357 47.1661 45.8357C48.2502 45.8357 49.129 44.9569 49.129 43.8729V39.5283H49.2685C50.3525 39.5283 51.2314 38.6495 51.2314 37.5654C51.2314 36.4814 50.3525 35.6025 49.2685 35.6025H34.975C34.7894 36.2379 34.6908 36.8991 34.6908 37.5654C34.6908 38.6495 35.5695 39.5283 36.6537 39.5283ZM16.8197 43.8729C16.8197 44.9569 17.6986 45.8357 18.7826 45.8357H29.2949C30.379 45.8357 31.2578 44.9569 31.2578 43.8729C31.2578 42.7888 30.379 41.91 29.2949 41.91H21.4398C21.5065 41.8271 21.5774 41.7479 21.6523 41.6725C23.2251 40.1007 25.746 37.581 27.7253 35.6025H22.1722L18.8731 38.8999C17.5681 40.2121 16.8197 42.0246 16.8197 43.8729Z" fill="#183F6B"/>
<path d="M33.5 66.9998V54.6641C36.9009 54.6641 39.6679 57.431 39.6679 60.8319C39.6679 64.2328 36.9009 66.9998 33.5 66.9998Z" fill="#183F6B"/>
</svg>
