<svg width="51" height="63" viewBox="0 0 51 63" fill="none" xmlns="http://www.w3.org/2000/svg">
<path d="M17.6965 4.65263L19.6985 6.1013C19.9142 6.25499 20.0749 6.47397 20.1568 6.72596C20.2387 6.97794 20.2374 7.24953 20.1532 7.50069L19.3383 9.99224C19.3382 9.99237 19.3382 9.9925 19.3382 9.99263C19.3222 10.0419 19.3223 10.0949 19.3383 10.1442C19.3544 10.1936 19.3856 10.2366 19.4276 10.2671C19.4696 10.2976 19.5202 10.3141 19.5721 10.3141C19.6239 10.3141 19.6744 10.2977 19.7163 10.2674C19.7164 10.2673 19.7165 10.2672 19.7167 10.2671L21.8339 8.72234C22.0467 8.56452 22.3047 8.47929 22.5697 8.47929C22.8347 8.47929 23.0927 8.56452 23.3055 8.72234L25.4226 10.2671C25.4227 10.2671 25.4229 10.2672 25.423 10.2673C25.4649 10.2976 25.5154 10.314 25.5671 10.3139C25.619 10.3139 25.6696 10.2975 25.7116 10.267C25.7536 10.2365 25.7849 10.1934 25.8009 10.1441C25.8169 10.0948 25.817 10.0418 25.8011 9.99247C25.801 9.99237 25.801 9.99226 25.801 9.99216L24.9872 7.50118C24.903 7.25004 24.9017 6.97844 24.9835 6.72646C25.0654 6.47443 25.2262 6.25544 25.442 6.10179L27.5657 4.56503C27.5658 4.56497 27.5659 4.5649 27.566 4.56484C27.6079 4.53433 27.639 4.49136 27.6551 4.44207C27.6711 4.39268 27.6711 4.33949 27.655 4.2901C27.639 4.24072 27.6077 4.19768 27.5657 4.16717C27.5238 4.13671 27.4733 4.12028 27.4215 4.12021C27.4214 4.12021 27.4213 4.12021 27.4212 4.12021L24.7998 4.12531C24.5348 4.12785 24.2761 4.04515 24.0617 3.88938C23.8474 3.73362 23.6888 3.51307 23.6093 3.26033L22.8041 0.765612C22.804 0.76551 22.804 0.765408 22.804 0.765306C22.7879 0.71605 22.7567 0.673125 22.7148 0.642664C22.6727 0.612142 22.6221 0.595703 22.5702 0.595703C22.5183 0.595703 22.4677 0.612142 22.4257 0.642664C22.3838 0.673125 22.3525 0.71605 22.3365 0.765306C22.3364 0.765408 22.3364 0.76551 22.3364 0.765612L21.531 3.26049C21.4515 3.513 21.293 3.7333 21.0787 3.88892C20.8645 4.04453 20.606 4.1272 20.3413 4.12478M17.6965 4.65263L20.3387 4.12476C20.3395 4.12477 20.3404 4.12478 20.3413 4.12478M17.6965 4.65263L17.5752 4.5645C17.5332 4.53398 17.502 4.49094 17.4859 4.44156C17.4699 4.39218 17.4699 4.33898 17.4859 4.2896C17.502 4.24022 17.5332 4.19719 17.5752 4.16666C17.6171 4.13621 17.6676 4.11977 17.7194 4.11969C17.7195 4.11969 17.7196 4.11969 17.7197 4.11969M17.6965 4.65263L17.7197 4.11969M20.3413 4.12478L17.7197 4.11969M20.3413 4.12478L17.7197 4.11969M35.1124 4.56391L35.1022 4.55648C35.0657 4.5267 35.0385 4.48702 35.0239 4.44208C35.0079 4.3927 35.0079 4.33951 35.0239 4.29013C35.04 4.24074 35.0713 4.19771 35.1133 4.16718C35.1552 4.13674 35.2056 4.1203 35.2574 4.12021C35.2575 4.12021 35.2576 4.12021 35.2578 4.12021L37.8763 4.12528C37.8772 4.12529 37.8782 4.1253 37.8791 4.12531C38.144 4.12785 38.4028 4.04515 38.6171 3.88938C38.8315 3.73362 38.9901 3.51309 39.0695 3.26035C39.0698 3.25944 39.0701 3.25853 39.0704 3.25762L39.8749 0.765747C39.8749 0.765665 39.8749 0.765582 39.875 0.7655C39.891 0.716232 39.9223 0.673303 39.9642 0.642845C40.0062 0.612336 40.0568 0.595904 40.1087 0.595904C40.1606 0.595904 40.2112 0.612336 40.2532 0.642845C40.2951 0.673274 40.3263 0.716151 40.3424 0.765361C40.3425 0.765489 40.3425 0.765618 40.3426 0.765747L41.147 3.25774C41.1472 3.25867 41.1475 3.2596 41.1478 3.26053C41.2273 3.51317 41.3859 3.73361 41.6002 3.88933C41.8145 4.04509 42.0733 4.1278 42.3382 4.12531C42.3391 4.1253 42.34 4.12529 42.3409 4.12528L44.9597 4.12021C44.9598 4.12021 44.9599 4.12021 44.96 4.12021C45.0118 4.1203 45.0623 4.13674 45.1042 4.16718C45.1462 4.19771 45.1774 4.24074 45.1935 4.29013C45.2095 4.33951 45.2095 4.3927 45.1935 4.44208C45.1775 4.49143 45.1462 4.53444 45.1043 4.56496C45.1042 4.56498 45.1042 4.565 45.1042 4.56503L42.9826 6.10025C42.9819 6.10077 42.9811 6.1013 42.9804 6.10183C42.7646 6.25552 42.6039 6.47453 42.522 6.72656C42.4402 6.97852 42.4415 7.25007 42.5258 7.50118C42.5261 7.50211 42.5264 7.50304 42.5267 7.50396L43.3393 9.99224C43.3393 9.99234 43.3393 9.99243 43.3394 9.99253C43.3553 10.0418 43.3553 10.0949 43.3392 10.1442C43.3232 10.1936 43.2919 10.2366 43.2499 10.2671C43.2079 10.2976 43.1573 10.3141 43.1054 10.3141C43.0536 10.3141 43.0032 10.2977 42.9612 10.2674C42.9611 10.2673 42.961 10.2672 42.9609 10.2671L40.8459 8.72398C40.8451 8.72344 40.8444 8.7229 40.8437 8.72236C40.6309 8.56452 40.3729 8.47929 40.1079 8.47929C39.8428 8.47929 39.5849 8.56452 39.372 8.72237C39.3713 8.7229 39.3706 8.72344 39.3698 8.72398L37.2547 10.2672C37.2546 10.2673 37.2546 10.2673 37.2545 10.2674C37.2125 10.2978 37.162 10.3142 37.1102 10.3142C37.0583 10.3142 37.0077 10.2978 36.9656 10.2672C36.9236 10.2367 36.8924 10.1937 36.8763 10.1443C36.8603 10.095 36.8602 10.0419 36.8762 9.99256C36.8762 9.99248 36.8763 9.99241 36.8763 9.99233L37.6907 7.50345C37.691 7.50258 37.6913 7.5017 37.6916 7.50082C37.7759 7.24964 37.7772 6.97797 37.6953 6.72593C37.6134 6.47391 37.4527 6.25491 37.2368 6.10125C37.2361 6.10071 37.2353 6.10017 37.2346 6.09963L35.1124 4.56391Z" stroke="#183F6B"/>
<path d="M25.2202 15.9405C27.5838 16.6568 28.9191 19.1535 28.2028 21.517C27.4865 23.8805 24.9898 25.2159 22.6263 24.4996C20.2628 23.7833 18.9275 21.2866 19.6437 18.9231C20.36 16.5596 22.8567 15.2243 25.2202 15.9405Z" stroke="#00B2BD"/>
<path d="M36.467 16.4948C37.2023 16.0034 38.0669 15.7412 38.9513 15.7412H38.9514C40.1373 15.7413 41.2747 16.2124 42.1132 17.051C42.9518 17.8896 43.4229 19.027 43.423 20.213C43.423 21.0974 43.1607 21.962 42.6693 22.6973C42.178 23.4327 41.4796 24.0059 40.6625 24.3443C39.8454 24.6828 38.9462 24.7713 38.0788 24.5988C37.2114 24.4262 36.4146 24.0003 35.7892 23.3749C35.1638 22.7495 34.7379 21.9527 34.5654 21.0853C34.3929 20.2178 34.4814 19.3187 34.8199 18.5016C35.1584 17.6845 35.7316 16.9861 36.467 16.4948Z" stroke="#00B2BD"/>
<path d="M33.1853 36.6807C32.8981 34.4258 31.7985 32.353 30.0926 30.8507C28.3867 29.3483 26.1916 28.5195 23.9184 28.5195C21.6453 28.5195 19.4502 29.3483 17.7443 30.8507C16.0385 32.353 14.9389 34.4256 14.6516 36.6804C14.6235 36.903 14.6432 37.129 14.7091 37.3434C14.7752 37.5579 14.8861 37.7559 15.0345 37.9242C15.1829 38.0926 15.3654 38.2274 15.57 38.3198C15.7745 38.4121 15.9963 38.4599 16.2208 38.4599L33.1853 36.6807ZM33.1853 36.6807C33.2133 36.9032 33.1937 37.1291 33.1277 37.3434C33.0617 37.5579 32.9508 37.7559 32.8024 37.9242C32.6539 38.0926 32.4714 38.2274 32.2669 38.3198C32.0623 38.4121 31.8405 38.4599 31.6161 38.4599C31.6161 38.4599 31.6161 38.4599 31.616 38.4599M33.1853 36.6807L31.616 38.4599M31.616 38.4599H16.2208H31.616Z" stroke="#00B2BD"/>
<path d="M46.649 38.4591H33.6564C33.8469 38.2134 33.9918 37.9348 34.0835 37.6367C34.1913 37.2866 34.2233 36.9176 34.1774 36.5542L34.1774 36.5536C33.9435 34.7179 33.2214 32.9814 32.0902 31.5237C33.2471 30.2706 34.7265 29.3569 36.3688 28.8841C38.1006 28.3855 39.9396 28.3986 41.6641 28.9217C43.3886 29.4447 44.925 30.4555 46.088 31.8321C47.2509 33.2086 47.9909 34.8922 48.2186 36.6798C48.2466 36.9023 48.227 37.1283 48.161 37.3426C48.0949 37.5572 47.984 37.7552 47.8356 37.9235C47.6871 38.0919 47.5045 38.2267 47.2999 38.319C47.0954 38.4114 46.8735 38.4591 46.649 38.4591H46.649Z" stroke="#00B2BD"/>
<path fill-rule="evenodd" clip-rule="evenodd" d="M23.2253 28.0426C25.4951 28.2033 27.6392 29.1453 29.2928 30.7085C30.9464 32.2716 32.0074 34.3593 32.2953 36.6165C32.3324 36.9096 32.3066 37.2072 32.2198 37.4896C32.1329 37.772 31.987 38.0326 31.7916 38.2542C31.5962 38.4759 31.356 38.6534 31.0867 38.7749C30.8175 38.8965 30.5254 38.9594 30.23 38.9594H31.616C31.9114 38.9594 32.2034 38.8965 32.4726 38.7749C32.7418 38.6534 32.982 38.4759 33.1774 38.2544C33.3727 38.0328 33.5187 37.7722 33.6055 37.4899C33.6924 37.2076 33.7182 36.9101 33.6813 36.617C33.3776 34.2419 32.2189 32.0588 30.4219 30.4763C28.6249 28.8939 26.3128 28.0204 23.9184 28.0196C23.6852 28.019 23.4542 28.0267 23.2253 28.0426ZM38.2914 28.0402C40.5675 28.1937 42.7196 29.1329 44.3799 30.6973C46.0402 32.2617 47.1057 34.3541 47.3942 36.617C47.4312 36.9101 47.4054 37.2077 47.3185 37.49C47.2316 37.7723 47.0857 38.0329 46.8903 38.2545C46.695 38.476 46.4547 38.6535 46.1855 38.775C45.9163 38.8966 45.6243 38.9594 45.3289 38.9594H46.6489C46.9443 38.9594 47.2363 38.8966 47.5056 38.7751C47.7748 38.6535 48.0151 38.4761 48.2105 38.2545C48.4059 38.033 48.5519 37.7724 48.6388 37.49C48.7257 37.2077 48.7515 36.9101 48.7145 36.617C48.4118 34.2415 47.2533 32.0579 45.4561 30.4752C43.6589 28.8926 41.3464 28.0195 38.9516 28.0196C38.7295 28.019 38.5095 28.0259 38.2914 28.0402Z" fill="#183F6B"/>
<path d="M7.19638 46.5111L14.0741 58.4239C14.0743 58.4241 14.0744 58.4244 14.0746 58.4247C14.2814 58.786 14.337 59.2146 14.2291 59.6168C14.1211 60.0191 13.8584 60.3624 13.4983 60.5717C13.4981 60.5718 13.498 60.5718 13.4978 60.5719L10.6837 62.1969C10.6836 62.1969 10.6835 62.197 10.6834 62.1971C10.322 62.4042 9.8933 62.4599 9.49094 62.3521C9.08872 62.2443 8.74545 61.9819 8.53599 61.622C8.53585 61.6218 8.5357 61.6215 8.53556 61.6213L1.65774 49.7084C1.65763 49.7082 1.65751 49.708 1.65739 49.7078C1.45039 49.3465 1.39469 48.9179 1.50247 48.5157C1.61026 48.1134 1.87278 47.7701 2.23273 47.5607C2.23293 47.5606 2.23312 47.5605 2.23332 47.5604L5.04784 45.9358C5.04802 45.9357 5.0482 45.9356 5.04838 45.9355C5.40974 45.7283 5.8384 45.6725 6.24079 45.7802C6.64316 45.888 6.98655 46.1505 7.19603 46.5105C7.19615 46.5107 7.19627 46.5109 7.19638 46.5111Z" stroke="#00B2BD"/>
<path fill-rule="evenodd" clip-rule="evenodd" d="M4.17004 49.3701C4.06057 49.1765 4.0319 48.9476 4.09026 48.733C4.14863 48.5184 4.28931 48.3355 4.48175 48.224C4.67419 48.1126 4.90284 48.0816 5.11802 48.1377C5.3332 48.1939 5.51753 48.3327 5.63096 48.524L6.63373 50.261C6.68929 50.3569 6.72541 50.4628 6.74004 50.5727C6.75466 50.6826 6.7475 50.7943 6.71896 50.9014C6.69042 51.0085 6.64107 51.1089 6.57371 51.1969C6.50636 51.285 6.42233 51.3589 6.32641 51.4144C6.23049 51.47 6.12457 51.5061 6.0147 51.5207C5.90482 51.5354 5.79314 51.5282 5.68603 51.4997C5.57892 51.4711 5.47848 51.4218 5.39045 51.3544C5.30241 51.2871 5.22851 51.203 5.17295 51.1071L4.17004 49.3701Z" fill="#183F6B"/>
<path d="M29.5635 50.3149C30.6406 49.7609 31.2325 49.2205 31.5065 48.7416C31.763 48.2933 31.7631 47.8628 31.5556 47.4132C31.3356 46.9365 30.8742 46.4286 30.1843 45.9202C29.5008 45.4165 28.6279 44.9378 27.6368 44.5073C25.6541 43.6461 23.249 42.9998 21.0615 42.7254C19.9686 42.5884 18.9415 42.5456 18.0564 42.6113C17.1691 42.677 16.4613 42.8492 15.9742 43.114L8.89433 47.3914L8.89302 47.3922C8.88972 47.3942 8.88097 47.3993 8.86711 47.4074L14.3451 56.8954L15.2003 56.3429L15.2003 56.3429C15.3 56.2785 15.4029 56.2122 15.4972 56.1675C15.6118 56.1132 15.7456 56.0742 15.9061 56.0886C16.0204 56.0988 16.129 56.1372 16.1901 56.1589C16.1948 56.1605 16.1993 56.1621 16.2034 56.1636L16.2118 56.1665C16.2849 56.1921 16.3686 56.2215 16.4883 56.2545L29.5635 50.3149ZM29.5635 50.3149C29.5518 50.3209 29.5411 50.327 29.5381 50.3287L29.52 50.339L29.4807 50.3618L29.4449 50.3826L29.4367 50.3873L27.8396 51.2087L29.6392 51.3274C31.4313 51.4456 32.8628 51.2034 33.817 50.4796L44.301 44.7682L44.3133 44.7614L44.3253 44.754C46.3978 43.4684 48.3102 44.1417 49.1227 45.2756C49.53 45.844 49.6669 46.5256 49.4492 47.1837C49.2307 47.8444 48.6261 48.5646 47.3855 49.1339L47.36 49.1456L47.3359 49.1602L31.7153 58.5796L31.7153 58.5795L31.7071 58.5846C30.1934 59.5377 28.5226 59.7027 26.6436 59.0461L26.6276 59.0405L26.6112 59.036L16.4888 56.2547L29.5635 50.3149Z" stroke="#183F6B"/>
<path d="M8.89301 47.3919L8.89432 47.3911L15.9742 43.1137C16.7339 42.7007 18.0034 42.5252 19.5797 42.5966C20.7856 42.6512 22.1246 42.8479 23.4643 43.1564L10.6691 50.5274L8.86724 47.407C8.88103 47.399 8.88973 47.3939 8.89301 47.3919ZM23.3498 48.7882L28.5936 50.1919C27.2141 49.9764 25.4417 49.5485 23.1677 48.8079C23.2236 48.7793 23.2882 48.7721 23.3493 48.7881C23.3494 48.7881 23.3496 48.7882 23.3498 48.7882Z" stroke="#183F6B"/>
</svg>
