<svg width="118" height="118" viewBox="0 0 118 118" fill="none" xmlns="http://www.w3.org/2000/svg">
<path d="M31.379 22.7623V116.717C31.379 116.886 31.4122 117.053 31.4767 117.208C31.5411 117.364 31.6356 117.505 31.7547 117.624C31.8739 117.743 32.0153 117.838 32.1709 117.902C32.3266 117.967 32.4934 118 32.6618 118H107.839C108.18 118 108.506 117.865 108.746 117.624C108.987 117.384 109.122 117.057 109.122 116.717V22.7623C109.122 22.4221 108.987 22.0958 108.746 21.8552C108.506 21.6146 108.18 21.4795 107.839 21.4795H32.6618C32.4934 21.4795 32.3266 21.5127 32.1709 21.5771C32.0153 21.6416 31.8739 21.7361 31.7547 21.8552C31.6356 21.9743 31.5411 22.1157 31.4767 22.2714C31.4122 22.427 31.379 22.5938 31.379 22.7623Z" fill="#73E4EB"/>
<path d="M107.839 21.4795H101.937C102.277 21.4795 102.604 21.6146 102.844 21.8552C103.085 22.0958 103.22 22.4221 103.22 22.7623V116.717C103.22 117.057 103.085 117.384 102.844 117.624C102.604 117.865 102.277 118 101.937 118H107.839C108.18 118 108.506 117.865 108.746 117.624C108.987 117.384 109.122 117.057 109.122 116.717V22.7623C109.122 22.4221 108.987 22.0958 108.746 21.8552C108.506 21.6146 108.18 21.4795 107.839 21.4795Z" fill="#64CFD6"/>
<path d="M84.0755 0C81.3726 0 79.1813 2.1913 79.1813 4.89423V9.78847L88.9695 13.6394V4.89423C88.9697 2.1913 86.7784 0 84.0755 0Z" fill="#407194"/>
<path d="M91.6298 33.7842C91.6298 35.084 91.6022 36.4277 91.5491 37.7989C91.291 44.4572 90.4083 51.7515 88.961 57.8336L84.0755 61.8871L79.1891 57.8336C77.7418 51.7515 76.8591 44.4572 76.6009 37.7989C76.5479 36.4277 76.5226 35.084 76.5226 33.7842L84.075 31.4795L91.6298 33.7842Z" fill="#FFA95F"/>
<path d="M91.5492 37.7989C91.2911 44.4572 90.4084 51.7515 88.961 57.8336L86.4775 59.4469L83.9437 57.8336C85.3611 50.5024 86.1078 41.4035 86.1078 33.7842L91.5492 37.7989Z" fill="#FF8B5A"/>
<path d="M79.1907 57.833C80.2174 62.1432 81.5283 65.8453 83.1056 68.2769C83.5622 68.9806 84.5892 68.9806 85.0455 68.2769C86.6228 65.8453 87.9337 62.1432 88.9605 57.833H79.1907Z" fill="#407194"/>
<path d="M85.0455 68.2769C86.6228 65.8453 87.9337 62.1432 88.9605 57.833H83.9422C83.3488 60.9047 82.6387 63.6692 81.8162 65.8826L81.8182 65.8902C82.2255 66.7784 82.6541 67.5811 83.1054 68.2769C83.562 68.9806 84.5889 68.9806 85.0455 68.2769Z" fill="#365F7E"/>
<path d="M98.6591 30.4851C98.1869 30.4851 97.734 30.2975 97.4 29.9636C97.0661 29.6297 96.8785 29.1768 96.8785 28.7045V17.5715C96.8785 16.7231 96.1894 16.0329 95.3424 16.0329H91.1541C90.6819 16.0329 90.229 15.8453 89.8951 15.5114C89.5611 15.1774 89.3735 14.7245 89.3735 14.2523C89.3735 13.78 89.5611 13.3271 89.8951 12.9932C90.229 12.6593 90.6819 12.4717 91.1541 12.4717H95.3424C98.1532 12.4717 100.44 14.7595 100.44 17.5715V28.7043C100.44 29.1766 100.252 29.6295 99.9183 29.9635C99.5843 30.2974 99.1314 30.4851 98.6591 30.4851Z" fill="#407194"/>
<path d="M90.7385 9.78857H77.4124C77.2954 9.78854 77.1795 9.81156 77.0715 9.85632C76.9634 9.90107 76.8652 9.96668 76.7824 10.0494C76.6997 10.1321 76.6341 10.2303 76.5894 10.3384C76.5446 10.4465 76.5216 10.5624 76.5216 10.6793C76.5216 10.6793 76.55 36.4294 76.6032 37.7991H91.5477C91.6009 36.4294 91.6293 35.0851 91.6293 33.7854V10.6793C91.6293 10.5624 91.6063 10.4465 91.5615 10.3384C91.5168 10.2303 91.4512 10.1321 91.3685 10.0494C91.2857 9.96668 91.1875 9.90107 91.0794 9.85632C90.9714 9.81156 90.8555 9.78854 90.7385 9.78857Z" fill="#DF646E"/>
<path d="M86.108 10.6793C86.108 10.6793 86.0857 36.4291 86.0426 37.7991H91.548C91.6013 36.4294 91.6296 35.0851 91.6296 33.7854V10.6793C91.6296 10.5624 91.6066 10.4465 91.5619 10.3384C91.5171 10.2303 91.4515 10.1321 91.3688 10.0494C91.2861 9.96668 91.1879 9.90107 91.0798 9.85632C90.9717 9.81156 90.8558 9.78854 90.7388 9.78857H85.386C85.7847 9.78857 86.108 10.1873 86.108 10.6793Z" fill="#CD5668"/>
<path d="M16.028 103.7C12.0791 103.7 8.87793 106.901 8.87793 110.85C8.87793 114.799 12.0791 118 16.028 118H24.2295L28.978 110.85L24.2295 103.7H16.028Z" fill="#5392F9"/>
<path d="M24.2295 118H32.431C36.3798 118 39.581 114.799 39.581 110.85C39.581 106.901 36.3798 103.7 32.431 103.7H24.2295V118Z" fill="#FFA95F"/>
<path d="M23.4028 70.7559C20.6104 67.9635 16.0833 67.9635 13.2912 70.7559C10.4991 73.5483 10.4988 78.0753 13.2912 80.8675L19.0905 86.6668L27.6973 85.5577L29.2021 76.5552L23.4028 70.7559Z" fill="#5392F9"/>
<path d="M19.0905 86.6668L24.8897 92.4661C27.6821 95.2584 32.2092 95.2582 35.0016 92.4661C37.7939 89.6737 37.7939 85.1466 35.0016 82.3545L29.2023 76.5552L19.0905 86.6668Z" fill="#FFA95F"/>
<path d="M61.9754 50.6195L64.7761 47.8188C65.1041 47.4836 65.2867 47.0326 65.2842 46.5636C65.2817 46.0946 65.0943 45.6455 64.7626 45.3139C64.431 44.9823 63.9819 44.7949 63.5129 44.7923C63.0439 44.7898 62.5929 44.9724 62.2577 45.3005L59.4571 48.1011L55.9452 44.5895C59.2812 44.3171 61.9132 41.5171 61.9132 38.1122C61.9132 34.5277 58.9968 31.6113 55.4121 31.6113H48.6449C48.1726 31.6113 47.7197 31.7989 47.3858 32.1329C47.0519 32.4668 46.8643 32.9197 46.8643 33.3919V51.0014C46.8643 51.4736 47.0519 51.9265 47.3858 52.2604C47.7197 52.5944 48.1726 52.782 48.6449 52.782C49.1171 52.782 49.57 52.5944 49.9039 52.2604C50.2379 51.9265 50.4255 51.4736 50.4255 51.0014V44.613H50.9323L56.9387 50.6195L54.1379 53.4204C53.4423 54.1157 53.4423 55.2431 54.1379 55.9387C54.8334 56.6342 55.9606 56.634 56.6562 55.9387L59.4571 53.1378L61.9957 55.6764C62.3296 56.0104 62.7826 56.198 63.2548 56.198C63.7271 56.198 64.1801 56.0104 64.514 55.6764C64.848 55.3425 65.0356 54.8895 65.0356 54.4172C65.0356 53.945 64.848 53.492 64.514 53.1581L61.9754 50.6195ZM58.352 38.1122C58.352 39.733 57.0332 41.0518 55.4123 41.0518H50.4257V35.1728H55.4123C57.0332 35.1728 58.352 36.4915 58.352 38.1122Z" fill="white"/>
<path d="M62.7164 69.5949H48.6449C48.1726 69.5949 47.7197 69.4073 47.3858 69.0734C47.0519 68.7394 46.8643 68.2865 46.8643 67.8143C46.8643 67.342 47.0519 66.8891 47.3858 66.5552C47.7197 66.2213 48.1726 66.0337 48.6449 66.0337H62.7164C63.1886 66.0337 63.6415 66.2213 63.9754 66.5552C64.3094 66.8891 64.497 67.342 64.497 67.8143C64.497 68.2865 64.3094 68.7394 63.9754 69.0734C63.6415 69.4073 63.1886 69.5949 62.7164 69.5949ZM91.7425 86.7936H48.7583C48.5244 86.7936 48.2929 86.7476 48.0768 86.6581C47.8608 86.5686 47.6645 86.4374 47.4992 86.2721C47.3338 86.1068 47.2027 85.9105 47.1132 85.6944C47.0237 85.4784 46.9776 85.2469 46.9776 85.013C46.9776 84.7792 47.0237 84.5476 47.1132 84.3316C47.2027 84.1156 47.3338 83.9193 47.4992 83.7539C47.6645 83.5886 47.8608 83.4574 48.0768 83.368C48.2929 83.2785 48.5244 83.2324 48.7583 83.2324H91.7425C91.9763 83.2324 92.2079 83.2785 92.4239 83.368C92.64 83.4574 92.8362 83.5886 93.0016 83.7539C93.1669 83.9193 93.2981 84.1156 93.3876 84.3316C93.4771 84.5476 93.5231 84.7792 93.5231 85.013C93.5231 85.2469 93.4771 85.4784 93.3876 85.6944C93.2981 85.9105 93.1669 86.1068 93.0016 86.2721C92.8362 86.4374 92.64 86.5686 92.4239 86.6581C92.2079 86.7476 91.9763 86.7936 91.7425 86.7936ZM91.7425 103.993H48.7583C48.286 103.993 47.8331 103.805 47.4992 103.471C47.1652 103.137 46.9776 102.684 46.9776 102.212C46.9776 101.74 47.1652 101.287 47.4992 100.953C47.8331 100.619 48.286 100.431 48.7583 100.431H91.7425C92.2148 100.431 92.6677 100.619 93.0016 100.953C93.3355 101.287 93.5231 101.74 93.5231 102.212C93.5231 102.684 93.3355 103.137 93.0016 103.471C92.6677 103.805 92.2148 103.993 91.7425 103.993Z" fill="white"/>
</svg>
