<svg width="116" height="116" viewBox="0 0 116 116" fill="none" xmlns="http://www.w3.org/2000/svg">
<path d="M113.067 111.1V54.0668C113.067 53.5452 112.86 53.0449 112.491 52.6761C112.122 52.3073 111.622 52.1001 111.1 52.1001H4.90014C4.37855 52.1001 3.87832 52.3073 3.50949 52.6761C3.14067 53.0449 2.93347 53.5452 2.93347 54.0668V111.1H113.067Z" fill="#CAD0D7"/>
<path d="M87.5001 24.5669C88.0217 24.5669 88.5219 24.7741 88.8908 25.1429C89.2596 25.5117 89.4668 26.012 89.4668 26.5336V107.167H26.5334V26.5336C26.5334 26.012 26.7406 25.5117 27.1095 25.1429C27.4783 24.7741 27.9785 24.5669 28.5001 24.5669H87.5001Z" fill="#E4E8EB"/>
<path d="M36.3668 77.667H79.6335V109.134H36.3668V77.667Z" fill="#CAD0D7"/>
<path d="M44.2335 79.6333H71.7669V107.167H44.2335V79.6333Z" fill="#73E4EB"/>
<path d="M71.7669 99.3002C61.9335 97.3336 58.0002 83.5669 58.0002 83.5669V107.167H71.7669V99.3002ZM58.0002 99.3002C48.1669 97.3336 44.2335 83.5669 44.2335 83.5669V107.167H58.0002V99.3002Z" fill="#64CFD6"/>
<path d="M16.7002 59.9668H12.7668C11.6807 59.9668 10.8002 60.8473 10.8002 61.9335V65.8668C10.8002 66.953 11.6807 67.8335 12.7668 67.8335H16.7002C17.7863 67.8335 18.6668 66.953 18.6668 65.8668V61.9335C18.6668 60.8473 17.7863 59.9668 16.7002 59.9668Z" fill="#73E4EB"/>
<path d="M42.2668 46.2002H36.3668C35.2807 46.2002 34.4001 47.0807 34.4001 48.1669V52.1002C34.4001 53.1864 35.2807 54.0669 36.3668 54.0669H42.2668C43.353 54.0669 44.2335 53.1864 44.2335 52.1002V48.1669C44.2335 47.0807 43.353 46.2002 42.2668 46.2002Z" fill="#73E4EB"/>
<path d="M61.9334 46.2002H54.0668C52.9806 46.2002 52.1001 47.0807 52.1001 48.1669V52.1002C52.1001 53.1864 52.9806 54.0669 54.0668 54.0669H61.9334C63.0196 54.0669 63.9001 53.1864 63.9001 52.1002V48.1669C63.9001 47.0807 63.0196 46.2002 61.9334 46.2002Z" fill="#73E4EB"/>
<path d="M79.6335 46.2002H73.7335C72.6474 46.2002 71.7668 47.0807 71.7668 48.1669V52.1002C71.7668 53.1864 72.6474 54.0669 73.7335 54.0669H79.6335C80.7197 54.0669 81.6002 53.1864 81.6002 52.1002V48.1669C81.6002 47.0807 80.7197 46.2002 79.6335 46.2002Z" fill="#73E4EB"/>
<path d="M16.7002 91.4336H12.7668C11.6807 91.4336 10.8002 92.3141 10.8002 93.4003V97.3336C10.8002 98.4198 11.6807 99.3003 12.7668 99.3003H16.7002C17.7863 99.3003 18.6668 98.4198 18.6668 97.3336V93.4003C18.6668 92.3141 17.7863 91.4336 16.7002 91.4336Z" fill="#73E4EB"/>
<path d="M16.7002 75.7002H12.7668C11.6807 75.7002 10.8002 76.5807 10.8002 77.6669V81.6002C10.8002 82.6864 11.6807 83.5669 12.7668 83.5669H16.7002C17.7863 83.5669 18.6668 82.6864 18.6668 81.6002V77.6669C18.6668 76.5807 17.7863 75.7002 16.7002 75.7002Z" fill="#73E4EB"/>
<path d="M99.3002 67.8335H103.234C104.32 67.8335 105.2 66.953 105.2 65.8668V61.9335C105.2 60.8473 104.32 59.9668 103.234 59.9668H99.3002C98.214 59.9668 97.3335 60.8473 97.3335 61.9335V65.8668C97.3335 66.953 98.214 67.8335 99.3002 67.8335Z" fill="#73E4EB"/>
<path d="M99.3002 99.3003H103.234C104.32 99.3003 105.2 98.4198 105.2 97.3336V93.4003C105.2 92.3141 104.32 91.4336 103.234 91.4336H99.3002C98.214 91.4336 97.3335 92.3141 97.3335 93.4003V97.3336C97.3335 98.4198 98.214 99.3003 99.3002 99.3003Z" fill="#73E4EB"/>
<path d="M99.3002 83.5669H103.234C104.32 83.5669 105.2 82.6864 105.2 81.6002V77.6669C105.2 76.5807 104.32 75.7002 103.234 75.7002H99.3002C98.214 75.7002 97.3335 76.5807 97.3335 77.6669V81.6002C97.3335 82.6864 98.214 83.5669 99.3002 83.5669Z" fill="#73E4EB"/>
<path d="M77.6668 0.966797H38.3335C36.1612 0.966797 34.4001 2.72781 34.4001 4.90013V32.4335C34.4001 34.6058 36.1612 36.3668 38.3335 36.3668H77.6668C79.8391 36.3668 81.6001 34.6058 81.6001 32.4335V4.90013C81.6001 2.72781 79.8391 0.966797 77.6668 0.966797Z" fill="#F76C82"/>
<path d="M67.8334 16.7002V20.6335C67.8334 21.1551 67.6262 21.6553 67.2574 22.0241C66.8886 22.393 66.3883 22.6002 65.8667 22.6002H61.9334V26.5335C61.9334 27.0551 61.7262 27.5553 61.3574 27.9241C60.9886 28.293 60.4883 28.5002 59.9667 28.5002H56.0334C55.5118 28.5002 55.0116 28.293 54.6428 27.9241C54.2739 27.5553 54.0667 27.0551 54.0667 26.5335V22.6002H50.1334C49.6118 22.6002 49.1116 22.393 48.7428 22.0241C48.3739 21.6553 48.1667 21.1551 48.1667 20.6335V16.7002C48.1667 16.1786 48.3739 15.6783 48.7428 15.3095C49.1116 14.9407 49.6118 14.7335 50.1334 14.7335H54.0667V10.8002C54.0667 10.2786 54.2739 9.77834 54.6428 9.40952C55.0116 9.0407 55.5118 8.8335 56.0334 8.8335H59.9667C60.4883 8.8335 60.9886 9.0407 61.3574 9.40952C61.7262 9.77834 61.9334 10.2786 61.9334 10.8002V14.7335H65.8667C66.3883 14.7335 66.8886 14.9407 67.2574 15.3095C67.6262 15.6783 67.8334 16.1786 67.8334 16.7002Z" fill="white"/>
<path d="M79.6335 63.8999H36.3668C35.2807 63.8999 34.4001 64.7804 34.4001 65.8666V77.6666C34.4001 78.7527 35.2807 79.6332 36.3668 79.6332H79.6335C80.7196 79.6332 81.6001 78.7527 81.6001 77.6666V65.8666C81.6001 64.7804 80.7196 63.8999 79.6335 63.8999Z" fill="#A9B0BB"/>
<path d="M113.067 107.167H2.93346C1.8473 107.167 0.966797 108.047 0.966797 109.134V113.067C0.966797 114.153 1.8473 115.034 2.93346 115.034H113.067C114.153 115.034 115.033 114.153 115.033 113.067V109.134C115.033 108.047 114.153 107.167 113.067 107.167Z" fill="#636C77"/>
<path d="M56.0334 79.6333H59.9668V107.167H56.0334V79.6333Z" fill="#3AADD9"/>
</svg>
