<svg width="118" height="118" viewBox="0 0 118 118" fill="none" xmlns="http://www.w3.org/2000/svg">
<g clip-path="url(#clip0_22_392)">
<path d="M14.7273 90.6455V116.201C14.7273 117.093 15.4494 117.815 16.3397 117.815H19.7004C19.9122 117.815 20.1219 117.773 20.3176 117.692C20.5133 117.611 20.6911 117.492 20.8408 117.342C20.9905 117.192 21.1093 117.014 21.1903 116.819C21.2713 116.623 21.313 116.413 21.3129 116.201V90.6457L14.7273 90.6455ZM96.6868 90.6455V116.201C96.6868 117.093 97.4089 117.815 98.2994 117.815H101.66C101.872 117.814 102.082 117.773 102.277 117.692C102.473 117.61 102.651 117.492 102.8 117.342C102.95 117.192 103.069 117.014 103.15 116.819C103.231 116.623 103.273 116.413 103.272 116.201V90.6457L96.6868 90.6455Z" fill="#AA493F"/>
<path d="M19.1945 116.201V90.6455H14.7273V116.201C14.7273 117.092 15.4494 117.815 16.3397 117.815H19.7003C19.8949 117.815 20.0813 117.778 20.2542 117.715C19.6365 117.489 19.1945 116.897 19.1945 116.201V116.201ZM101.154 116.201V90.6455H96.6868V116.201C96.6868 117.092 97.4089 117.815 98.2994 117.815H101.66C101.854 117.815 102.041 117.778 102.214 117.715C101.596 117.489 101.154 116.897 101.154 116.201V116.201Z" fill="#993B36"/>
<path d="M115.928 5.9697e-08H98.4264C97.7414 5.9697e-08 97.1904 0.189906 96.7917 0.759856L88.8052 12.1641C88.2417 12.9699 88.4372 14.0809 89.2429 14.6444C89.5415 14.8544 89.8977 14.9669 90.2627 14.9666C90.5493 14.967 90.8318 14.8982 91.086 14.7659C91.3403 14.6336 91.5588 14.4419 91.723 14.207L99.1773 3.5612H115.928C116.4 3.56102 116.853 3.37336 117.187 3.03947C117.52 2.70559 117.708 2.25279 117.708 1.7806C117.708 1.54675 117.662 1.31518 117.573 1.09912C117.483 0.883063 117.352 0.686747 117.187 0.521391C117.022 0.356035 116.825 0.224879 116.609 0.135417C116.393 0.0459548 116.162 -6.04994e-05 115.928 5.9697e-08Z" fill="#DDE4F7"/>
<path d="M63.6543 10.5376C62.3715 13.4705 63.1726 16.9052 65.7492 18.7084C68.3259 20.5125 71.8269 20.0912 74.1443 17.8829L63.6543 10.5376ZM77.2754 20.0749C75.9924 23.008 76.7938 26.4427 79.3704 28.2466C81.9459 30.05 85.4479 29.6287 87.7652 27.4204L77.2754 20.0749ZM90.8964 29.6123C89.6136 32.5455 90.4147 35.9802 92.9913 37.7841C95.5671 39.5875 99.069 39.166 101.386 36.9576L90.8964 29.6123Z" fill="#FEC13B"/>
<path d="M70.8078 18.7084C69.1208 17.5273 68.2007 15.6466 68.1224 13.6658L63.6543 10.5376C62.3715 13.4705 63.1726 16.9052 65.7492 18.7084C67.5895 19.9967 69.8995 20.1442 71.9152 19.3224C71.526 19.1562 71.1549 18.9505 70.8078 18.7084ZM84.429 28.2468C82.7419 27.0654 81.8217 25.1839 81.7435 23.2035L77.2754 20.0749C75.9924 23.008 76.7938 26.4427 79.3704 28.2466C81.2105 29.5349 83.5207 29.6826 85.5364 28.8596C85.1474 28.6935 84.7763 28.4881 84.429 28.2466V28.2468ZM98.0501 37.7841C96.3631 36.6029 95.4428 34.7214 95.3645 32.741L90.8964 29.6123C89.6145 32.5455 90.4147 35.9802 92.9913 37.7841C94.8316 39.0724 97.1416 39.2199 99.1573 38.3971C98.7684 38.2309 98.3974 38.0255 98.0501 37.7841Z" fill="#F9A332"/>
<path d="M114.752 75.5036H3.24823C1.46117 75.5036 0 76.9648 0 78.751V81.9989C0 83.7851 1.46117 85.2472 3.24823 85.2472H114.752C116.538 85.2472 118 83.7851 118 81.9989V78.7507C118 76.9646 116.539 75.5036 114.752 75.5036Z" fill="#B9E1FB"/>
<path d="M8.31047 81.9989V78.7507C8.31047 76.9646 9.77164 75.5034 11.5585 75.5034H3.24823C1.46117 75.5036 0 76.9648 0 78.751V81.9992C0 83.7853 1.46117 85.2474 3.24823 85.2474H11.5575C9.77141 85.2474 8.31024 83.7853 8.31024 81.9992L8.31047 81.9989Z" fill="#9AD3F6"/>
<path d="M33.0183 72.2568V69.0085C33.0183 67.2224 31.5572 65.7612 29.771 65.7612H3.24823C1.46117 65.7612 0 67.2224 0 69.0085V72.2568C0 74.0429 1.46117 75.5041 3.24823 75.5041H29.771C31.5572 75.5041 33.0183 74.0429 33.0183 72.2568Z" fill="#9AD3F6"/>
<path d="M8.31047 72.2568V69.0085C8.31047 67.2224 9.77164 65.7612 11.5585 65.7612H3.24823C1.46117 65.7612 0 67.2224 0 69.0085V72.2568C0 74.0429 1.46117 75.5041 3.24823 75.5041H11.5575C9.77141 75.5041 8.31047 74.0429 8.31047 72.2568Z" fill="#78CBF4"/>
<path d="M4.78125 85.2476V88.5847C4.78125 90.3709 6.24242 91.833 8.02948 91.833H109.97C111.757 91.833 113.219 90.3709 113.219 88.5847V85.2476H4.78125Z" fill="#B7594A"/>
<path d="M13.0917 88.5847V85.2476H4.78125V88.5847C4.78125 90.3709 6.24242 91.833 8.02948 91.833H16.3397C14.5529 91.833 13.0917 90.3709 13.0917 88.5847Z" fill="#AA493F"/>
<path d="M106.162 30.3722C105.99 25.5008 103.774 20.905 99.7102 18.0591L81.8263 5.53732C77.7615 2.69172 72.6859 2.18123 68.0496 3.68458L106.162 30.3722Z" fill="#CCD7F2"/>
<path d="M77.983 5.77717C77.1711 5.2093 77.1395 4.16942 77.6518 3.51028C74.5513 2.57227 71.1996 2.66331 68.0496 3.68498L106.163 30.3716C106.092 28.3857 105.676 26.4475 104.94 24.6523L77.983 5.77717Z" fill="#BCCCED"/>
<path d="M70.1815 41.37C69.9898 41.2359 69.8265 41.0653 69.7008 40.8681C69.5751 40.6709 69.4894 40.4508 69.4488 40.2205C69.4082 39.9901 69.4133 39.7541 69.4639 39.5257C69.5145 39.2974 69.6096 39.0812 69.7438 38.8897L73.5322 33.4792C73.665 33.2844 73.8351 33.118 74.0328 32.9895C74.2304 32.861 74.4515 32.773 74.6834 32.7307C74.9152 32.6883 75.1532 32.6924 75.3835 32.7427C75.6137 32.793 75.8317 32.8886 76.0248 33.0238C76.2179 33.159 76.3822 33.3312 76.5082 33.5304C76.6342 33.7295 76.7194 33.9518 76.7589 34.1841C76.7983 34.4165 76.7913 34.6544 76.7381 34.884C76.6849 35.1137 76.5867 35.3304 76.4491 35.5218L72.6606 40.9323C72.5266 41.1239 72.3562 41.2872 72.1591 41.413C71.962 41.5387 71.742 41.6243 71.5117 41.6649C71.2815 41.7056 71.0455 41.7005 70.8172 41.6498C70.589 41.5992 70.3729 41.5041 70.1815 41.37ZM79.4551 45.6048C79.2256 45.5593 79.0074 45.469 78.8129 45.3391C78.6184 45.2092 78.4513 45.0422 78.3213 44.8478C78.1913 44.6533 78.1009 44.4352 78.0553 44.2058C78.0096 43.9764 78.0096 43.7402 78.0552 43.5108L79.3407 37.0323C79.5325 36.0673 80.4687 35.4407 81.4339 35.6324C82.3991 35.8242 83.0255 36.7615 82.8337 37.7256L81.5482 44.204C81.5027 44.4334 81.4125 44.6517 81.2827 44.8462C81.153 45.0408 80.9861 45.2079 80.7917 45.338C80.5974 45.468 80.3793 45.5585 80.1499 45.6043C79.9206 45.6501 79.6845 45.6503 79.4551 45.6048ZM63.0305 34.103C62.52 33.2621 62.7892 32.1673 63.6301 31.6569L69.2785 28.2332C69.4785 28.1121 69.7005 28.0315 69.9316 27.9961C70.1628 27.9607 70.3987 27.9712 70.6258 28.027C70.853 28.0827 71.0669 28.1827 71.2554 28.3211C71.4439 28.4596 71.6033 28.6338 71.7244 28.8338C71.8456 29.0339 71.9262 29.2558 71.9616 29.487C71.997 29.7182 71.9865 29.9541 71.9307 30.1812C71.8749 30.4083 71.775 30.6223 71.6365 30.8108C71.4981 30.9993 71.3239 31.1586 71.1238 31.2798L65.4767 34.7034C64.6357 35.2121 63.54 34.9447 63.0305 34.103Z" fill="#FCDFAE"/>
<path d="M47.3353 48.2572H5.24478C2.35355 48.2572 0 45.9039 0 43.0122V15.1679C0 12.2752 2.35309 9.92285 5.24501 9.92285H47.3353C50.2277 9.92285 52.5803 12.2752 52.5803 15.1679V43.0122C52.5803 45.9039 50.2277 48.2572 47.3353 48.2572Z" fill="#DDE4F7"/>
<path d="M8.31047 43.0122V15.1679C8.31047 12.2752 10.6636 9.92285 13.5553 9.92285H5.24501C2.35309 9.9217 0 12.2752 0 15.1679V43.0122C0 45.9039 2.35309 48.2572 5.24501 48.2572H13.5553C10.6638 48.2572 8.31047 45.9039 8.31047 43.0122Z" fill="#CCD7F2"/>
<path d="M45.4186 16.3975H7.16263C6.98051 16.3976 6.8059 16.47 6.67712 16.5988C6.54835 16.7275 6.47595 16.9021 6.47583 17.0843V41.0945C6.47589 41.2766 6.54826 41.4513 6.67704 41.5801C6.80582 41.709 6.98047 41.7814 7.16263 41.7815H45.4186C45.6007 41.7814 45.7753 41.709 45.9041 41.5802C46.0329 41.4515 46.1053 41.2768 46.1054 41.0947V17.0845C46.1053 16.9024 46.0329 16.7278 45.9041 16.599C45.7753 16.4702 45.6007 16.3976 45.4186 16.3975Z" fill="#73E4EB"/>
<path d="M14.7858 41.0945V17.0843C14.7858 16.9021 14.8582 16.7274 14.987 16.5986C15.1158 16.4698 15.2905 16.3975 15.4726 16.3975H7.16263C6.98051 16.3976 6.8059 16.47 6.67712 16.5988C6.54835 16.7275 6.47595 16.9021 6.47583 17.0843V41.0945C6.47595 41.2766 6.54835 41.4512 6.67712 41.58C6.8059 41.7088 6.98051 41.7812 7.16263 41.7813H15.4731C15.3829 41.7813 15.2936 41.7635 15.2103 41.729C15.1269 41.6945 15.0512 41.6439 14.9875 41.5801C14.9237 41.5164 14.8731 41.4406 14.8386 41.3573C14.8041 41.274 14.7863 41.1847 14.7863 41.0945H14.7858Z" fill="#64CFD6"/>
<path d="M19.5502 25.2022C19.2847 25.5009 18.9443 25.4559 18.732 25.1913C17.1257 22.3616 12.7783 23.5015 12.7783 26.7594C12.7783 31.1944 17.44 33.8302 18.8687 34.5325C18.9546 34.5751 19.0492 34.5973 19.1451 34.5973C19.2411 34.5973 19.3357 34.5751 19.4216 34.5325C20.8512 33.8275 25.5136 31.1835 25.5136 26.7594C25.5126 23.5158 21.1789 22.3474 19.5502 25.2022Z" fill="#FF5155"/>
<path d="M19.3377 25.5433C19.3377 25.481 19.3423 25.4218 19.3448 25.3605C19.1261 25.4649 18.8931 25.3912 18.7318 25.1913C17.1259 22.3616 12.7783 23.5015 12.7783 26.7594C12.7783 31.1944 17.44 33.8302 18.8687 34.5325C18.9546 34.5751 19.0492 34.5973 19.1451 34.5973C19.2411 34.5973 19.3357 34.5751 19.4216 34.5325C20.1598 34.1688 21.7567 33.2875 23.1314 31.9127C21.3462 30.5901 19.3377 28.4539 19.3377 25.5433Z" fill="#F24049"/>
<path d="M38.7665 24.5996H31.73C31.4945 24.6023 31.2608 24.5582 31.0424 24.4699C30.824 24.3817 30.6252 24.2509 30.4577 24.0853C30.2902 23.9197 30.1572 23.7225 30.0665 23.5051C29.9757 23.2877 29.929 23.0545 29.929 22.8189C29.929 22.5833 29.9757 22.3501 30.0665 22.1327C30.1572 21.9154 30.2902 21.7182 30.4577 21.5525C30.6252 21.3869 30.824 21.2562 31.0424 21.1679C31.2608 21.0796 31.4945 21.0355 31.73 21.0382H38.7665C39.7497 21.0382 40.5473 21.8349 40.5473 22.819C40.5473 23.8031 39.7497 24.5996 38.7665 24.5996ZM38.7665 30.87H31.73C31.4945 30.8727 31.2608 30.8286 31.0424 30.7403C30.824 30.652 30.6252 30.5213 30.4577 30.3557C30.2902 30.19 30.1572 29.9928 30.0665 29.7755C29.9757 29.5581 29.929 29.3248 29.929 29.0893C29.929 28.8537 29.9757 28.6205 30.0665 28.4031C30.1572 28.1857 30.2902 27.9885 30.4577 27.8229C30.6252 27.6573 30.824 27.5265 31.0424 27.4383C31.2608 27.35 31.4945 27.3059 31.73 27.3086H38.7665C39.2388 27.3086 39.6917 27.4962 40.0256 27.8301C40.3596 28.1641 40.5472 28.617 40.5472 29.0893C40.5472 29.5616 40.3596 30.0145 40.0256 30.3484C39.6917 30.6824 39.2388 30.87 38.7665 30.87ZM38.7665 37.1404H31.73C31.4945 37.143 31.2608 37.099 31.0424 37.0107C30.824 36.9224 30.6252 36.7916 30.4577 36.626C30.2902 36.4604 30.1572 36.2632 30.0665 36.0458C29.9757 35.8284 29.929 35.5952 29.929 35.3596C29.929 35.1241 29.9757 34.8908 30.0665 34.6735C30.1572 34.4561 30.2902 34.2589 30.4577 34.0933C30.6252 33.9276 30.824 33.7969 31.0424 33.7086C31.2608 33.6203 31.4945 33.5762 31.73 33.5789H38.7665C39.2388 33.5789 39.6917 33.7665 40.0256 34.1005C40.3596 34.4344 40.5472 34.8874 40.5472 35.3596C40.5472 35.8319 40.3596 36.2849 40.0256 36.6188C39.6917 36.9528 39.2388 37.1404 38.7665 37.1404Z" fill="#64CFD6"/>
<path d="M107.281 37.5097L108.699 35.4859C109.724 34.022 109.364 31.9874 107.902 30.963L67.0601 2.36503C65.5961 1.34037 63.5606 1.69897 62.536 3.16245L61.1191 5.18643C60.0946 6.64944 60.4539 8.68494 61.9167 9.70938L102.758 38.3073C104.222 39.3318 106.258 38.9727 107.281 37.5097Z" fill="#DDE4F7"/>
<path d="M69.9807 9.70938C68.5176 8.68494 68.1583 6.64944 69.183 5.18643L69.8104 4.2906L67.0602 2.36503C65.5962 1.34037 63.5616 1.69897 62.5372 3.16245L61.1191 5.18643C60.0956 6.64944 60.454 8.68494 61.9168 9.70938L102.758 38.3073C104.222 39.3318 106.258 38.9727 107.282 37.5097L108.072 36.3815L69.9807 9.70938Z" fill="#CCD7F2"/>
<path d="M25.5271 56.1239C25.5271 61.8522 20.8825 66.4966 15.1542 66.4966C9.42566 66.4966 4.78125 61.8522 4.78125 56.1239C4.78125 50.3945 9.42566 45.751 15.1542 45.751C20.8825 45.751 25.5271 50.3945 25.5271 56.1239Z" fill="#FFCDBE"/>
<path d="M12.7575 56.1239C12.7575 51.8079 15.3936 48.1095 19.1424 46.5456C17.8787 46.0193 16.5231 45.7488 15.1542 45.75C9.42566 45.75 4.78125 50.3944 4.78125 56.1229C4.78125 61.8522 9.42566 66.4957 15.1542 66.4957C16.5677 66.4957 17.9143 66.2122 19.1424 65.6998C15.3936 64.138 12.7575 60.4387 12.7575 56.1239Z" fill="#F7C1B3"/>
<path d="M38.0389 64.9092C38.0389 64.8373 38.0453 64.767 38.0516 64.6979L31.0034 63.1521C28.8662 62.6317 26.7083 63.9415 26.1861 66.0807C25.6648 68.2187 26.9757 70.3757 29.1147 70.897L38.0391 72.9003L38.0389 64.9092Z" fill="#FFCDBE"/>
<path d="M33.4099 66.9475C33.6867 65.8084 34.3473 64.7994 35.2806 64.0901L31.0034 63.1521C28.8653 62.6317 26.7074 63.9415 26.1861 66.0807C25.6648 68.2187 26.9757 70.3757 29.1147 70.897L35.3689 72.3015C33.7429 71.1148 32.904 69.0242 33.4099 66.9475Z" fill="#F7C1B3"/>
<path d="M101.753 67.5312H89.2427V75.5032H101.753C103.954 75.5032 105.739 73.7186 105.739 71.5167C105.739 69.3155 103.954 67.5312 101.753 67.5312Z" fill="#FFCDBE"/>
<path d="M96.434 67.5312H89.2427V75.5032H96.434V67.5312Z" fill="#F7C1B3"/>
<path d="M87.6537 64.7562H48.9879C48.8045 64.7562 48.6208 64.7336 48.4424 64.6903L40.1727 62.6737C38.724 62.3199 37.3269 63.4174 37.3269 64.9092V108.167C37.3269 109.437 38.3569 110.467 39.6279 110.467H87.6537C88.9249 110.467 89.9549 109.437 89.9549 108.167V67.0569C89.9549 66.7547 89.8954 66.4555 89.7798 66.1763C89.6642 65.8971 89.4946 65.6434 89.2809 65.4297C89.0672 65.2161 88.8135 65.0466 88.5343 64.931C88.2551 64.8154 87.9559 64.7561 87.6537 64.7562Z" fill="#73E4EB"/>
<path d="M45.6678 108.167V64.9092C45.6678 64.6038 45.7291 64.3169 45.8344 64.0539L40.1727 62.6737C38.724 62.3199 37.3269 63.4174 37.3269 64.9092V108.167C37.3269 109.437 38.3569 110.467 39.6279 110.467H47.97C46.6987 110.467 45.6678 109.437 45.6678 108.167V108.167Z" fill="#64CFD6"/>
</g>
<defs>
<clipPath id="clip0_22_392">
<rect width="118" height="118" fill="white"/>
</clipPath>
</defs>
</svg>
