<svg width="105" height="118" viewBox="0 0 105 118" fill="none" xmlns="http://www.w3.org/2000/svg">
<path fill-rule="evenodd" clip-rule="evenodd" d="M35.2534 40.2306H65.0571C66.318 40.2306 66.8995 40.982 66.8995 42.073V53.8064C66.8995 54.734 67.6313 54.9168 68.2063 54.3487L81.0176 41.5307C81.8537 40.6946 82.9643 40.2306 84.1665 40.2306H98.5456C101.714 40.2306 104.308 37.6369 104.308 34.4684V5.76218C104.308 2.5937 101.714 0 98.5454 0H35.2534C32.0849 0 29.4912 2.5937 29.4912 5.76218V34.4684C29.4912 37.6369 32.0847 40.2306 35.2534 40.2306Z" fill="#73E4EB"/>
<path fill-rule="evenodd" clip-rule="evenodd" d="M35.2534 40.2306H65.0571C66.318 40.2306 66.8995 40.982 66.8995 42.073V53.8064C66.8995 54.734 67.6313 54.9168 68.2063 54.3487L81.0176 41.5307C81.8537 40.6946 82.9643 40.2306 84.1665 40.2306H98.5456C101.714 40.2306 104.308 37.6369 104.308 34.4684V5.76218C104.308 2.5937 101.714 0 98.5454 0V28.7063C98.5454 31.875 95.9517 34.4684 92.7832 34.4684H29.4912C29.4912 37.6369 32.0847 40.2306 35.2534 40.2306Z" fill="#64CFD6"/>
<path fill-rule="evenodd" clip-rule="evenodd" d="M15.6672 69.8185C7.29842 69.8185 2.5881 62.7039 4.672 54.5965L9.96379 34.0043C12.773 23.0615 21.6907 18.1094 29.4912 18.1094C37.2981 18.1094 46.2156 23.0612 49.025 34.0043L54.3168 54.5965C56.4007 62.7039 51.6904 69.8185 43.3216 69.8185H15.6672Z" fill="#736572"/>
<path fill-rule="evenodd" clip-rule="evenodd" d="M15.6671 69.8185C10.7152 69.8185 7.0434 67.3292 5.30566 63.6119C6.37066 63.8993 7.52024 64.0563 8.75532 64.0563H36.403C44.7718 64.0563 49.4824 56.9417 47.4047 48.8341L42.1131 28.2419C41.2966 25.0799 39.9767 22.4145 38.3175 20.2324C43.0998 22.6367 47.2611 27.1444 49.0251 34.0043L54.3169 54.5965C56.4008 62.7039 51.6905 69.8185 43.3217 69.8185H15.6671Z" fill="#615260"/>
<path fill-rule="evenodd" clip-rule="evenodd" d="M79.3708 69.4338C81.8926 66.7157 86.139 66.5525 88.8569 69.0743C91.581 71.5894 91.7444 75.836 89.2226 78.5601L73.4192 95.4611C71.2631 97.7935 67.6897 98.3291 64.913 96.5784L52.1669 88.7061C51.2981 88.1702 50.5991 88.6408 50.5991 89.5816V112.578L45.0266 118H7.42904C3.78372 118 0.693359 115.635 0.693359 111.271V87.8174C0.693359 76.7768 10.0748 67.3884 21.1223 67.3884H37.8664C41.7862 67.3884 45.4709 68.4926 48.5806 70.4463L65.8017 81.2778C66.9252 81.9833 67.8402 81.7351 68.6176 80.9121L79.3708 69.4338Z" fill="#FAF8F9"/>
<path fill-rule="evenodd" clip-rule="evenodd" d="M21.1221 58.1572H37.8661V67.3882L32.0583 72.0268L21.1221 67.3882V58.1572Z" fill="#F6A96C"/>
<path fill-rule="evenodd" clip-rule="evenodd" d="M44.4384 42.4778V45.7966C44.4384 54.0151 37.7094 60.7441 29.4909 60.7441C21.2723 60.7441 14.5498 54.0151 14.5498 45.7966V44.7578C14.5758 43.2746 14.9941 42.9547 16.3855 42.8436C22.2196 42.3928 27.433 39.7859 31.3134 35.8597C32.3521 34.8145 32.6789 34.821 33.711 35.9314C35.991 38.3877 39.1007 40.0996 42.6025 40.5175C43.8765 40.6682 44.4384 40.9687 44.4384 42.4778Z" fill="#FED2A4"/>
<path fill-rule="evenodd" clip-rule="evenodd" d="M44.439 42.4782V45.7969C44.439 54.0154 37.71 60.7444 29.4915 60.7444C23.9123 60.7444 19.0192 57.6412 16.458 53.0749C18.6767 54.3272 21.1816 54.9843 23.7293 54.9823C31.948 54.9823 38.677 48.2533 38.677 40.0348V39.46C39.9279 40.0004 41.2503 40.3568 42.6033 40.5183C43.8771 40.6685 44.439 40.9691 44.439 42.4782Z" fill="#FFBD86"/>
<path fill-rule="evenodd" clip-rule="evenodd" d="M40.0616 118V83.1726C40.0616 76.5026 27.6552 67.3887 21.1223 67.3887C10.0748 67.3887 0.693359 76.7768 0.693359 87.8177V111.272C0.693359 115.635 3.78348 118 7.42904 118H40.0616Z" fill="#EDE9FB"/>
<path fill-rule="evenodd" clip-rule="evenodd" d="M40.062 118V83.172C40.062 79.6311 36.5732 75.4107 32.327 72.2227C33.5487 73.9867 34.3 75.7703 34.3 77.41V112.238H1.66728C1.35384 112.238 1.04663 112.224 0.746094 112.185C1.14457 115.961 4.05171 118 7.42946 118H40.062Z" fill="#E0DBEE"/>
<path fill-rule="evenodd" clip-rule="evenodd" d="M50.5994 89.5808C50.5994 88.64 51.2984 88.1694 52.1672 88.7052L64.9133 96.5776C67.6898 98.3285 71.2634 97.7926 73.4194 95.4603L89.2229 78.5593C91.1436 76.4819 91.5029 73.5224 90.366 71.1182C90.0702 71.7313 89.6849 72.2971 89.2229 72.7971L73.4194 89.6983C71.2634 92.0304 67.69 92.5663 64.9133 90.8154L51.6512 82.6948C48.4696 80.7481 44.8372 82.8387 44.8372 87.8101V107.187C44.8372 110.545 42.9296 112.237 39.6371 112.237H38.2979V118H48.7508C49.9921 118 50.5996 117.699 50.5996 116.157L50.5994 89.5808Z" fill="#EDE9FB"/>
<path fill-rule="evenodd" clip-rule="evenodd" d="M42.9035 96.9697V118H32.5944L32.0653 116.164L32.5748 111.297L29.0079 107.037L21.1224 104.561L21.0636 96.9699C21.044 94.618 22.9844 92.6973 25.3363 92.6973H38.6311C40.983 92.697 42.9035 94.6178 42.9035 96.9697Z" fill="#73E4EB"/>
<path fill-rule="evenodd" clip-rule="evenodd" d="M42.9031 96.9699V118H23.376L28.2432 112.238H33.6853C35.5864 112.238 37.1412 110.683 37.1412 108.782V92.6973H38.6307C40.9826 92.6973 42.9031 94.618 42.9031 96.9699Z" fill="#64CFD6"/>
<path d="M21.1227 107.991H14.1649C13.9373 107.992 13.7119 107.948 13.5016 107.861C13.2912 107.774 13.1001 107.647 12.9392 107.486C12.7783 107.325 12.6508 107.134 12.564 106.924C12.4773 106.713 12.4329 106.488 12.4336 106.26V89.5422C12.4336 88.5883 13.2045 87.8174 14.1649 87.8174C14.3914 87.8172 14.6158 87.8616 14.8252 87.9483C15.0345 88.0349 15.2247 88.1619 15.3849 88.3221C15.5451 88.4823 15.6721 88.6726 15.7587 88.8819C15.8453 89.0913 15.8897 89.3157 15.8895 89.5422V104.535H21.1225L21.1227 107.991Z" fill="#D3CEE5"/>
<path fill-rule="evenodd" clip-rule="evenodd" d="M88.8568 69.0743C86.1389 66.5525 81.8925 66.7157 79.3707 69.4338L76.3525 72.6611L85.8515 82.1601L89.2226 78.5604C91.7444 75.836 91.581 71.5894 88.8568 69.0743ZM32.5745 111.271C32.5745 107.567 29.5432 104.535 25.8388 104.535H21.1221V118H25.8388C29.5434 118 32.5745 114.975 32.5745 111.271Z" fill="#FED2A4"/>
<path fill-rule="evenodd" clip-rule="evenodd" d="M83.0684 79.3768L85.8515 82.16L89.2226 78.5603C91.1433 76.4828 91.5026 73.5234 90.3657 71.1191C90.0698 71.7323 89.6846 72.2981 89.2226 72.7981L83.0684 79.3768ZM32.4766 112.238H21.1221V118H25.8388C29.0792 118 31.8034 115.681 32.4372 112.624C32.4632 112.5 32.4828 112.369 32.5024 112.238H32.4766Z" fill="#FFBD86"/>
</svg>
