<svg width="129" height="120" viewBox="0 0 129 120" fill="none" xmlns="http://www.w3.org/2000/svg">
<path d="M0 0H128.248L128.239 119.441C128.239 119.474 128.225 119.506 128.202 119.53C128.178 119.554 128.146 119.567 128.112 119.567H123.253C123.237 119.567 123.222 119.564 123.208 119.558C123.194 119.552 123.182 119.543 123.171 119.531C123.16 119.52 123.152 119.506 123.146 119.492C123.141 119.477 123.138 119.461 123.138 119.445C123.333 106.015 118.663 89.3797 102.283 85.8851C88.895 83.0268 76.119 87.5049 70.647 99.6105C67.8625 105.769 66.5698 112.693 66.2612 119.418C66.2592 119.458 66.2467 119.496 66.2263 119.523C66.206 119.551 66.1793 119.567 66.1519 119.567H62.0212C61.9808 119.567 61.9419 119.55 61.9129 119.521C61.8839 119.491 61.8669 119.451 61.8657 119.409C61.7312 114.244 60.9448 109.171 59.5063 104.188C56.8165 94.882 50.9509 87.8117 40.4079 85.734C35.6471 84.7955 30.9235 84.8466 26.2372 85.8874C10.0619 89.4767 4.93496 106.002 4.97141 119.438C4.97141 119.469 4.95861 119.499 4.93583 119.521C4.91304 119.543 4.88214 119.556 4.84992 119.556L0 119.497V0ZM123.306 11.519C123.306 9.22545 123.298 6.97549 123.282 4.76914C123.281 4.7157 123.259 4.66464 123.219 4.62705C123.179 4.58946 123.126 4.56837 123.07 4.56836H5.10262C5.0704 4.56836 5.0395 4.58024 5.01672 4.6014C4.99393 4.62255 4.98113 4.65124 4.98113 4.68116L4.9787 98.1351C4.9787 98.3787 5.02892 98.3945 5.12935 98.1825C9.15799 89.6188 16.4888 83.5615 26.4219 81.7206C31.2086 80.8332 35.9435 80.8017 40.6266 81.6258C53.0406 83.8074 60.9034 92.4072 64.0768 103.41C64.0843 103.436 64.0983 103.46 64.1165 103.476C64.1347 103.493 64.1559 103.501 64.1764 103.5C64.2137 103.498 64.2388 103.477 64.2517 103.434C67.9524 91.4461 76.8406 82.7245 90.5424 81.2874C105.219 79.7466 116.884 85.2332 123.175 97.729C123.262 97.9035 123.298 97.8892 123.282 97.6862C123.197 96.5943 123.289 95.1504 123.289 94.3947C123.307 66.7695 123.313 39.1442 123.306 11.519Z" fill="#183F6B"/>
<path d="M34.8533 93.7495C18.4521 92.6937 13.1721 107.089 13.2255 119.423C13.2255 119.461 13.2145 119.498 13.1949 119.525C13.1753 119.552 13.1487 119.567 13.121 119.567H9.05108C9.02121 119.567 8.99253 119.554 8.97118 119.531C8.94984 119.507 8.93752 119.476 8.93688 119.443C8.82997 106.753 14.1464 91.8815 29.8382 89.9188C37.8785 88.9126 45.8872 91.2747 50.8318 97.4177C55.7206 103.493 57.458 111.921 57.2441 119.411C57.2429 119.453 57.2272 119.492 57.2004 119.521C57.1737 119.55 57.138 119.567 57.1008 119.567H53.0916C53.0761 119.567 53.0607 119.564 53.0464 119.557C53.0321 119.551 53.0191 119.542 53.0082 119.53C52.9974 119.518 52.9888 119.504 52.9831 119.489C52.9774 119.473 52.9746 119.457 52.975 119.441C53.1693 108.337 49.2379 94.6767 34.8533 93.7495Z" fill="#183F6B"/>
<path d="M96.3254 93.7562C79.6957 92.8268 75.0232 106.915 75.0937 119.332C75.094 119.363 75.0876 119.393 75.0749 119.422C75.0623 119.45 75.0435 119.476 75.0198 119.498C74.9961 119.52 74.9678 119.537 74.9367 119.549C74.9056 119.561 74.8722 119.567 74.8385 119.567H71.0116C70.9692 119.567 70.9285 119.553 70.8981 119.528C70.8677 119.503 70.85 119.47 70.8488 119.434C70.5888 107.612 75.0499 92.9351 89.5511 90.1963C92.7099 89.5992 95.944 89.5654 99.2534 90.0948C114.248 92.4951 119.319 107.272 119.12 119.441C119.119 119.474 119.106 119.506 119.084 119.53C119.062 119.554 119.032 119.567 119.001 119.567H114.991C114.962 119.567 114.933 119.554 114.912 119.53C114.891 119.506 114.88 119.474 114.88 119.441C114.914 108.515 110.72 94.5616 96.3254 93.7562Z" fill="#183F6B"/>
<path d="M34.1244 101.914C23.6009 101.503 21.5185 112.068 21.7737 119.418C21.7744 119.437 21.7726 119.457 21.7686 119.475C21.7645 119.493 21.7582 119.509 21.7501 119.523C21.7419 119.537 21.732 119.548 21.7211 119.555C21.7101 119.563 21.6982 119.567 21.6862 119.567H17.7985C17.7604 119.567 17.7238 119.551 17.6962 119.524C17.6686 119.497 17.6521 119.46 17.6503 119.42C17.089 108.84 21.9122 96.2333 36.2044 98.2569C47.0292 99.7865 49.8527 111.028 49.4104 119.411C49.4079 119.453 49.3913 119.493 49.3642 119.522C49.3371 119.551 49.3014 119.567 49.2646 119.567H45.496C45.4597 119.567 45.4239 119.559 45.3906 119.544C45.3574 119.529 45.3274 119.507 45.3024 119.479C45.2775 119.452 45.2581 119.419 45.2454 119.383C45.2328 119.348 45.2271 119.31 45.2287 119.271C45.5106 112.386 43.7052 102.288 34.1244 101.914Z" fill="#183F6B"/>
<path d="M95.1105 101.979C84.519 101.657 82.5022 111.897 82.8205 119.423C82.8215 119.441 82.8185 119.46 82.8116 119.477C82.8047 119.495 82.7941 119.511 82.7805 119.524C82.7668 119.538 82.7504 119.549 82.7323 119.556C82.7141 119.563 82.6945 119.567 82.6747 119.567H78.8478C78.8091 119.567 78.7718 119.551 78.7438 119.524C78.7157 119.497 78.699 119.46 78.6971 119.42C78.1626 109.37 82.439 96.8808 96.0752 98.1103C107.743 99.1638 110.87 110.439 110.472 119.445C110.471 119.478 110.453 119.509 110.424 119.532C110.394 119.554 110.355 119.567 110.314 119.567H106.426C106.409 119.567 106.391 119.564 106.375 119.557C106.359 119.551 106.344 119.542 106.332 119.531C106.319 119.52 106.31 119.506 106.304 119.491C106.297 119.477 106.294 119.461 106.295 119.445C106.572 112.567 104.774 102.275 95.1105 101.979Z" fill="#183F6B"/>
</svg>
