<svg width="119" height="118" viewBox="0 0 119 118" fill="none" xmlns="http://www.w3.org/2000/svg">
<path d="M86.8354 46.7208L78.8446 51.5858L72.9482 49.9461L75.2363 40.4931L83.0243 37.4756C83.0243 37.4756 84.2596 38.9282 84.4551 38.9899C84.6487 39.0424 86.8354 46.7208 86.8354 46.7208Z" fill="#F9C4C0"/>
<path d="M78.7487 51.5589L67.0667 64.9541L59.0943 73.3663C58.2113 74.529 57.074 75.4672 55.7722 76.1066C54.4704 76.7459 53.04 77.069 51.594 77.0502C51.2492 77.0502 50.8933 77.0259 50.5486 76.9622C48.7678 76.7503 47.0875 76.0122 45.7161 74.8395L45.4322 74.6036L32.2383 63.3667L42.0378 38.8862L44.0051 39.0229C46.613 39.1988 49.1105 40.158 51.1801 41.7786C53.2497 43.3991 54.798 45.6078 55.6281 48.124L56.8708 51.8939L73.9402 38.9836L78.7487 51.5589Z" fill="#F1F7FF"/>
<path d="M69.0793 62.6457L59.0935 73.3678C58.2105 74.5305 57.0732 75.4687 55.7714 76.108C54.4696 76.7474 53.0392 77.0705 51.5932 77.0517C51.2484 77.0517 50.8925 77.0273 50.5478 76.9637C48.767 76.7518 47.0867 76.0137 45.7153 74.841L45.4314 74.6051C44.4855 72.0594 44.2385 69.2497 44.3011 66.5148C44.4118 62.5315 45.1493 58.5743 46.4897 54.8418C47.5959 51.7588 49.3549 48.599 52.3675 47.4385L51.4457 48.5859C52.1463 50.2968 52.8469 52.0077 53.6342 53.6681C54.4952 55.4651 55.5019 57.2509 57.0156 58.5256C58.4409 59.7349 60.2367 60.3975 62.0454 60.8711C63.9758 61.3709 67.0751 62.6213 69.0793 62.6457Z" fill="#C7DAFA"/>
<path d="M30.6983 117.092L30.1895 92.8564L49.6097 94.6684V117.094L30.6983 117.092Z" fill="#363383"/>
<path d="M8.25293 117.091V91.6899L35.8262 89.8105L33.6561 117.091H8.25293Z" fill="#5150AC"/>
<path d="M49.2832 49.9748V88.3877H12.0947V46.3696C12.0947 44.2418 12.9273 42.2011 14.4093 40.6965C15.8912 39.1919 17.9012 38.3467 19.997 38.3467H37.7892C44.1354 38.3467 49.2832 43.543 49.2832 49.9748Z" fill="#73E4EB"/>
<path d="M49.284 91.6682H12.0938V87.814H49.284V91.6682Z" fill="black"/>
<path d="M50.5517 52.6653V72.657C50.0966 72.3913 49.6713 72.0762 49.2832 71.7173V52.6653C49.2832 52.2441 49.5598 51.894 49.9175 51.894C50.2622 51.894 50.5517 52.2441 50.5517 52.6653Z" fill="#F2CF77"/>
<path d="M33.2139 91.6357V87.9837C33.2139 87.3098 33.7541 86.7632 34.4178 86.7632H41.8131C42.4769 86.7632 43.0152 87.3098 43.0152 87.9837V91.6338C43.0152 92.3077 42.4769 92.858 41.8131 92.858H34.4178C34.0987 92.8575 33.7927 92.7286 33.567 92.4995C33.3414 92.2703 33.2144 91.9597 33.2139 91.6357ZM34.3644 87.9837V91.6338C34.3644 91.6656 34.3883 91.69 34.4178 91.69L41.8666 91.6338L41.8131 87.9294L34.3644 87.9837Z" fill="white"/>
<path d="M47.8985 11.1422C47.8985 15.2491 45.343 18.5774 42.1921 18.5774C39.0411 18.5774 35.9897 16.0466 35.9897 11.9397C35.9897 7.83274 39.0411 3.70898 42.1921 3.70898C45.343 3.70898 47.8985 7.03719 47.8985 11.1422ZM15.6808 14.9702C15.6808 19.8091 19.2835 26.3775 23.6218 26.8136C23.7748 26.8286 23.9279 26.8286 24.0827 26.8286C27.8071 26.8286 30.8272 22.2238 31.7933 17.8024C31.8228 17.662 31.8541 17.5366 31.8689 17.3981C32.0316 16.5993 32.1137 15.7859 32.1141 14.9702C32.1141 13.7872 31.915 12.6491 31.5315 11.6233C30.7036 9.27409 29.0019 7.40595 26.8723 6.50371C25.9334 6.09167 24.9212 5.87952 23.8984 5.88037C23.8209 5.88037 23.7601 5.88037 23.6826 5.89534C21.8758 5.92717 20.2182 6.62725 18.8852 7.77846C18.793 7.8421 18.7008 7.9357 18.6086 8.02742C18.2399 8.355 17.8896 8.74435 17.5669 9.15055C16.3332 10.8314 15.6712 12.874 15.6808 14.9702Z" fill="#333077"/>
<path opacity="0.15" d="M27.101 22.8132C28.528 21.0087 29.968 19.1724 31.7933 17.8022C31.9463 17.6767 32.0846 17.5682 32.2358 17.4596C32.1141 17.4446 31.9924 17.4278 31.8689 17.3978C30.9622 17.2869 30.0653 17.1048 29.1862 16.8531C27.5306 19.1555 25.2775 21.0854 23.4227 21.0854C20.0357 21.0854 16.5547 16.1998 16.5547 12.7593C16.5547 11.5463 16.9696 10.3165 17.6591 9.24203L17.5669 9.14844C16.3328 10.8298 15.6708 12.8731 15.6808 14.97C15.6808 19.8088 19.2835 26.3773 23.6218 26.8134" fill="black"/>
<path d="M24.0723 24.3076H35.4593V38.343H24.0723V24.3076Z" fill="#F9C4C0"/>
<path d="M35.4574 21.9253V32.7036C35.4574 32.7036 30.424 35.3467 24.0723 34.3565V21.9272L35.4574 21.9253Z" fill="#FD9997"/>
<path d="M43.9981 16.5724V23.5302C43.9981 29.1252 39.5362 33.6421 34.04 33.6421C28.5438 33.6421 24.0801 29.1252 24.0801 23.5302V16.5724C24.0811 13.8908 25.1307 11.3194 26.9984 9.42326C28.866 7.52712 31.3988 6.46144 34.04 6.46045C36.7872 6.46045 39.2855 7.59481 41.0776 9.42738C42.0055 10.3632 42.7414 11.4765 43.2427 12.7029C43.744 13.9293 44.0007 15.2445 43.9981 16.5724Z" fill="#F9C4C0"/>
<path d="M16.5557 12.7586C16.5557 16.1972 20.0367 21.0847 23.4236 21.0847C25.2784 21.0847 27.5315 19.1567 29.1872 16.8524C30.5977 14.9374 31.5785 12.7436 31.5785 11.1862C31.5785 7.74753 26.582 5.87939 23.2079 5.87939C21.0323 5.87939 18.9009 7.31139 17.6582 9.2413C16.9705 10.3158 16.5557 11.5437 16.5557 12.7586Z" fill="#333077"/>
<path d="M47.2202 8.24003C48.1145 15.8212 20.1817 16.5961 19.5087 9.30139C18.6458 0 28.9948 0 35.8369 0C42.6791 0 46.6966 3.79805 47.2202 8.24003Z" fill="#333077"/>
<path d="M34.4921 19.9596C34.4921 20.6765 34.0717 21.2568 33.561 21.2568C33.0503 21.2568 32.6299 20.6765 32.6299 19.9596C32.6299 19.2426 33.0503 18.6792 33.561 18.6792C34.0717 18.6792 34.4921 19.2426 34.4921 19.9596ZM41.1001 19.9596C41.1001 20.6765 40.6797 21.2568 40.169 21.2568C39.6583 21.2568 39.2379 20.6765 39.2379 19.9596C39.2379 19.2426 39.6583 18.6792 40.169 18.6792C40.6797 18.6792 41.1001 19.2426 41.1001 19.9596Z" fill="#373754"/>
<path d="M33.3047 25.6284C33.3028 25.6846 33.2881 25.7351 33.2881 25.7931C33.2881 26.2968 33.3858 26.7956 33.5757 27.2609C33.7655 27.7263 34.0438 28.1491 34.3946 28.5052C34.7454 28.8614 35.1619 29.1439 35.6202 29.3367C36.0786 29.5294 36.5698 29.6286 37.0659 29.6286C37.562 29.6286 38.0533 29.5294 38.5116 29.3367C38.97 29.1439 39.3865 28.8614 39.7373 28.5052C40.0881 28.1491 40.3663 27.7263 40.5562 27.2609C40.7461 26.7956 40.8438 26.2968 40.8438 25.7931C40.8438 25.737 40.8309 25.6846 40.8272 25.6284H33.3047Z" fill="white"/>
<path opacity="0.15" d="M16.5557 12.7585C16.5557 16.1971 20.0367 21.0846 23.4236 21.0846C25.2784 21.0846 27.5315 19.1566 29.1872 16.8523C25.2637 15.7629 21.6924 13.5203 18.8548 10.5328C18.4861 10.1584 18.0897 9.69233 17.6601 9.24121C16.9705 10.3157 16.5557 11.5436 16.5557 12.7585Z" fill="black"/>
<path d="M42.1574 80.3669L37.631 85.8478L31.8841 80.3669L31.543 38.8804H34.1316L42.1574 80.3669Z" fill="#353E57"/>
<path opacity="0.08" d="M42.152 80.3691L37.6385 85.8425L36.9342 85.1686L41.3039 79.8712L33.3887 38.8882H34.1317L42.152 80.3691Z" fill="black"/>
<path d="M36.8521 38.3447L33.0005 45.5889L27.0986 38.3447H36.8521Z" fill="#353E57"/>
<path d="M21.8545 38.3439L24.0725 36.0864L31.4991 38.3439L29.4286 43.0498L21.8545 38.3439ZM36.0956 42.6099L31.4991 38.3439L35.4577 36.6311L36.8202 38.3439L36.0956 42.6099Z" fill="#64CFD6"/>
<path d="M37.5132 105.003C37.5311 106.16 37.3219 107.31 36.898 108.384C36.474 109.459 35.8437 110.437 35.0437 111.262C34.2438 112.087 33.2902 112.742 32.2384 113.189C31.1867 113.636 30.0579 113.866 28.9177 113.866H7.68136L7.65739 111.069L7.25176 53.3667L7.23886 51.3076L7.22595 48.9603C7.17801 43.105 11.8501 38.3467 17.6173 38.3467H21.8469L35.828 54.8398L36.1968 65.8016L36.6891 80.4828L37.4893 104.329V104.366L37.5132 105.003Z" fill="#F1F7FF"/>
<path d="M50.5521 113.139V50.6027C50.5516 47.3516 49.2793 44.2338 47.015 41.9349C44.7506 39.636 41.6796 38.3442 38.4774 38.3438H36.8198L35.8242 54.835L37.491 104.328C37.5685 106.629 38.4692 108.822 40.0245 110.498C41.5797 112.173 43.6831 113.216 45.9409 113.431L50.5521 113.139Z" fill="#F1F7FF"/>
<path d="M50.5487 71.9907C49.7375 72.8013 45.9984 75.7158 44.929 75.9891C43.4779 76.3766 42.0638 76.9381 40.7474 77.6625C39.3092 78.4618 37.9688 79.4352 36.6911 80.4835C35.9518 81.0825 35.2272 81.7077 34.5007 82.331C30.5662 85.7266 26.6058 89.1484 23.2244 93.1187C19.2529 97.7984 16.1425 103.167 13.3621 108.661C12.7113 109.923 11.9369 111.332 10.5707 111.682C9.63592 111.931 8.62739 111.594 7.7682 111.132C7.73133 111.107 7.69445 111.094 7.65758 111.07L7.25195 53.3674C8.3582 52.2442 9.57508 51.2446 10.9155 50.4098C11.7765 49.8857 12.7113 49.4102 13.718 49.3484C15.2815 49.2361 16.7325 50.0841 18.0471 50.9451C22.6104 53.9177 25.9789 58.8857 29.9504 62.6294C31.6835 64.2655 34.3034 64.3909 36.197 65.8023C36.9234 66.3638 37.6849 66.8749 38.4832 67.3129C40.5501 68.4491 42.8253 69.123 44.9769 70.0833C46.3413 70.6954 52.7244 69.8306 50.5487 71.9907Z" fill="#C7DAFA"/>
<path d="M35.4336 54.8256L36.16 54.8013L37.8194 104.271L37.0911 104.298L35.4336 54.8256Z" fill="#C7DAFA"/>
<path d="M118.5 106.1V116.302C118.5 117.238 117.75 118 116.828 118H2.17228C1.72891 117.999 1.30385 117.82 0.990339 117.502C0.676831 117.184 0.500488 116.752 0.5 116.302V106.1C0.5 105.164 1.25041 104.402 2.17228 104.402H116.828C117.75 104.402 118.5 105.164 118.5 106.1Z" fill="#73E4EB"/>
<path d="M118.5 106.102V116.302C118.5 117.238 117.75 118 116.828 118H2.17228C1.72891 117.999 1.30385 117.82 0.990339 117.502C0.676831 117.184 0.500488 116.752 0.5 116.302V114.778H114.184C115.106 114.778 115.856 114.016 115.856 113.08V104.404H116.828C117.75 104.404 118.5 105.166 118.5 106.102Z" fill="#64CFD6"/>
<path d="M51.5933 60.3721V77.0506C51.2485 77.0506 50.8926 77.0262 50.5479 76.9626V60.3721H51.5933Z" fill="#C7DAFA"/>
<path d="M20.3666 43.7975L31.4991 62.4826L62.0777 52.7582L66.0178 65.0995L30.9312 80.7279C29.0343 81.5729 26.8997 81.69 24.924 81.0576C22.9484 80.4251 21.266 79.0861 20.1896 77.2892L6.66381 54.7218C5.54785 52.8604 5.14274 50.6483 5.52516 48.5041C5.90758 46.3599 7.051 44.4324 8.73899 43.0865C10.427 41.7406 12.5424 41.0697 14.6848 41.2007C16.8273 41.3317 18.8499 42.2556 20.3666 43.7975Z" fill="#F1F7FF"/>
<path d="M87.6338 71.8862V94.0587C87.6692 94.7334 87.9582 95.3686 88.4411 95.8335C88.9241 96.2984 89.5643 96.5575 90.2298 96.5575C90.8953 96.5575 91.5355 96.2984 92.0184 95.8335C92.5014 95.3686 92.7904 94.7334 92.8258 94.0587V71.8862H87.6338ZM91.9113 94.0587C91.883 94.4914 91.6938 94.8971 91.3819 95.1934C91.07 95.4898 90.6588 95.6547 90.2316 95.6547C89.8045 95.6547 89.3933 95.4898 89.0814 95.1934C88.7695 94.8971 88.5802 94.4914 88.552 94.0587V72.8166H91.9094L91.9113 94.0587Z" fill="#C7DAFA"/>
<path d="M88.5498 81.3315V94.0603C88.57 94.4988 88.7558 94.9125 89.0686 95.2155C89.3814 95.5185 89.7971 95.6876 90.2295 95.6876C90.6618 95.6876 91.0775 95.5185 91.3903 95.2155C91.7031 94.9125 91.8889 94.4988 91.9091 94.0603V81.3315H88.5498Z" fill="#79AFFE"/>
<path d="M93.7755 72.8163H86.6863C86.6319 72.8165 86.578 72.8059 86.5277 72.7849C86.4774 72.7639 86.4316 72.7331 86.3931 72.6941C86.3546 72.6552 86.324 72.6089 86.3031 72.5579C86.2822 72.5069 86.2715 72.4522 86.2715 72.397V71.8148C86.2715 71.5827 86.4559 71.3955 86.6863 71.3955H93.7755C94.0042 71.3955 94.1885 71.5827 94.1885 71.8148V72.3951C94.1885 72.6291 94.0042 72.8163 93.7755 72.8163Z" fill="#EDF5FC"/>
<path d="M95.9873 71.8862V94.0587C96.0227 94.7334 96.3117 95.3686 96.7947 95.8335C97.2776 96.2984 97.9178 96.5575 98.5833 96.5575C99.2488 96.5575 99.889 96.2984 100.372 95.8335C100.855 95.3686 101.144 94.7334 101.179 94.0587V71.8862H95.9873ZM100.263 94.0587C100.263 94.9984 99.507 95.7658 98.5833 95.7658C98.1375 95.7654 97.7101 95.5853 97.3948 95.2653C97.0796 94.9452 96.9023 94.5113 96.9018 94.0587V72.8166H100.263V94.0587Z" fill="#C7DAFA"/>
<path d="M96.9033 81.3315V94.0604C96.9178 94.5031 97.1012 94.9228 97.4148 95.2308C97.7283 95.5388 98.1476 95.711 98.5839 95.711C99.0202 95.711 99.4395 95.5388 99.753 95.2308C100.067 94.9228 100.25 94.5031 100.264 94.0604V81.3315H96.9033Z" fill="#65F0AC"/>
<path d="M102.128 72.8163H95.039C94.9294 72.8163 94.8244 72.7721 94.7469 72.6935C94.6695 72.6148 94.626 72.5082 94.626 72.397V71.8148C94.626 71.5827 94.8104 71.3955 95.039 71.3955H102.128C102.357 71.3955 102.541 71.5827 102.541 71.8148V72.3951C102.541 72.6291 102.357 72.8163 102.128 72.8163Z" fill="#EDF5FC"/>
<path d="M104.34 71.8862V94.0587C104.375 94.7334 104.664 95.3686 105.147 95.8335C105.63 96.2984 106.27 96.5575 106.936 96.5575C107.601 96.5575 108.242 96.2984 108.724 95.8335C109.207 95.3686 109.496 94.7334 109.532 94.0587V71.8862H104.34ZM108.617 94.0587C108.589 94.4914 108.4 94.8971 108.088 95.1934C107.776 95.4898 107.365 95.6547 106.938 95.6547C106.511 95.6547 106.099 95.4898 105.787 95.1934C105.476 94.8971 105.286 94.4914 105.258 94.0587V72.8166H108.616L108.617 94.0587Z" fill="#C7DAFA"/>
<path d="M105.257 81.3315V94.0603C105.277 94.4988 105.463 94.9125 105.776 95.2155C106.088 95.5185 106.504 95.6876 106.936 95.6876C107.369 95.6876 107.785 95.5185 108.097 95.2155C108.41 94.9125 108.596 94.4988 108.616 94.0603V81.3315H105.257Z" fill="#FCBA97"/>
<path d="M110.48 72.8163H103.391C103.281 72.8163 103.176 72.7721 103.098 72.6935C103.021 72.6148 102.978 72.5082 102.978 72.397V71.8148C102.978 71.5827 103.162 71.3955 103.391 71.3955H110.482C110.708 71.3955 110.895 71.5827 110.895 71.8148V72.3951C110.895 72.6291 110.708 72.8163 110.48 72.8163Z" fill="#EDF5FC"/>
<path d="M80.7148 102.31H116.45V104.466H80.7148V102.31Z" fill="#DAEAF9"/>
<path d="M80.7148 100.052H116.45V102.31H80.7148V100.052ZM80.7148 77.9995H116.45V80.257H80.7148V77.9995Z" fill="#EDF5FC"/>
<path d="M111.224 80.2568H113.671V102.309H111.224V80.2568ZM83.4961 80.2568H85.9427V102.309H83.4961V80.2568Z" fill="#EDF5FC"/>
<path opacity="0.7" d="M72.0086 76.0264V85.938C70.1967 85.3563 68.2523 85.3563 66.4404 85.938V76.0264H72.0086Z" fill="#5150AC"/>
<path opacity="0.7" d="M78.4073 94.8277C78.4073 97.301 77.4395 99.673 75.7169 101.422C73.9942 103.171 71.6579 104.153 69.2217 104.153C66.7855 104.153 64.4491 103.171 62.7265 101.422C61.0039 99.673 60.0361 97.301 60.0361 94.8277C60.0361 92.3543 61.0039 89.9823 62.7265 88.2334C64.4491 86.4845 66.7855 85.502 69.2217 85.502C71.6579 85.502 73.9942 86.4845 75.7169 88.2334C77.4395 89.9823 78.4073 92.3543 78.4073 94.8277Z" fill="#5150AC"/>
<path d="M76.5783 94.8176C75.9551 94.4526 75.1733 94.462 74.4893 94.6791C73.8034 94.8962 73.1931 95.3062 72.6013 95.7199C72.0113 96.1354 71.4213 96.5641 70.752 96.8336C69.6384 97.2829 68.3441 97.2473 67.2581 96.7344C67.1899 97.1968 67.1235 97.6666 67.1696 98.1327C67.2157 98.5988 67.3872 99.0687 67.7283 99.3832C68.1542 99.7762 68.7663 99.8661 69.3378 99.9166C70.894 100.055 72.4962 100.031 73.9712 99.5048C74.8024 99.2143 75.5616 98.7443 76.1966 98.1271C76.5174 97.8089 76.7977 97.4514 77.0208 97.0564C77.1978 96.7457 77.478 96.3919 77.4319 96.0138C77.3711 95.5196 76.9913 95.061 76.5783 94.8176Z" fill="#F99072"/>
<path d="M77.4401 96.1304C77.1311 98.1191 76.1334 99.9307 74.6264 101.239C73.1194 102.548 71.2019 103.268 69.2188 103.27C67.0147 103.267 64.9018 102.376 63.3436 100.794C61.7854 99.2109 60.9092 97.0653 60.9072 94.8275C60.9072 93.8242 61.0805 92.8621 61.4013 91.9692C61.7019 91.87 62.0356 91.87 62.3527 91.8943C64.4546 92.0366 66.4919 92.98 67.9762 94.4944C68.5477 95.0784 69.0419 95.7448 69.6614 96.2764C70.2827 96.8043 71.0792 97.1992 71.8849 97.1C72.5044 97.0214 73.0465 96.6676 73.6236 96.4224C74.7427 95.9544 76.002 95.9058 77.1986 96.0892C77.2797 96.1004 77.359 96.1154 77.4401 96.1304Z" fill="#FCBA97"/>
<path opacity="0.7" d="M73.421 76.0256H65.019C64.9252 76.0256 64.8351 75.9878 64.7687 75.9204C64.7023 75.853 64.665 75.7616 64.665 75.6662V74.2193C64.665 74.0208 64.8236 73.8599 65.019 73.8599H73.4229C73.6183 73.8599 73.775 74.0208 73.775 74.2193V75.6662C73.775 75.7612 73.738 75.8524 73.672 75.9197C73.606 75.9871 73.5146 76.0251 73.421 76.0256Z" fill="#363383"/>
<path d="M71.221 92.9853C71.1847 93.0538 71.1354 93.1143 71.0761 93.1634C71.0167 93.2126 70.9484 93.2494 70.875 93.2717C70.8017 93.294 70.7247 93.3015 70.6485 93.2936C70.5723 93.2857 70.4984 93.2627 70.4309 93.2258C70.3635 93.189 70.3039 93.139 70.2555 93.0787C70.2071 93.0184 70.1708 92.9491 70.1488 92.8746C70.1268 92.8001 70.1195 92.722 70.1273 92.6446C70.135 92.5672 70.1577 92.4922 70.194 92.4237C70.2303 92.3553 70.2796 92.2947 70.3389 92.2456C70.3983 92.1965 70.4666 92.1597 70.54 92.1373C70.6133 92.115 70.6903 92.1076 70.7665 92.1154C70.8427 92.1233 70.9166 92.1463 70.9841 92.1832C71.0515 92.2201 71.1111 92.2701 71.1595 92.3303C71.2079 92.3906 71.2441 92.46 71.2661 92.5344C71.2881 92.6089 71.2955 92.6871 71.2877 92.7644C71.28 92.8418 71.2573 92.9168 71.221 92.9853ZM73.3929 90.2505C73.3566 90.3189 73.3074 90.3795 73.248 90.4286C73.1886 90.4777 73.1203 90.5145 73.047 90.5369C72.9736 90.5592 72.8966 90.5667 72.8204 90.5588C72.7442 90.5509 72.6703 90.5279 72.6029 90.491C72.5354 90.4541 72.4758 90.4041 72.4274 90.3439C72.379 90.2836 72.3428 90.2143 72.3208 90.1398C72.2988 90.0653 72.2914 89.9871 72.2992 89.9098C72.3069 89.8324 72.3296 89.7574 72.3659 89.6889C72.4393 89.5507 72.5637 89.4476 72.7119 89.4025C72.8601 89.3574 73.0198 89.3739 73.156 89.4484C73.2922 89.5228 73.3936 89.6492 73.4381 89.7996C73.4825 89.95 73.4663 90.1122 73.3929 90.2505ZM70.4171 89.191C70.3266 89.3618 70.1731 89.4891 69.9901 89.5449C69.8072 89.6007 69.61 89.5805 69.4418 89.4886C69.2735 89.3968 69.1482 89.2409 69.0932 89.0552C69.0382 88.8694 69.0581 88.6692 69.1486 88.4984C69.1934 88.4138 69.2542 88.3391 69.3274 88.2783C69.4007 88.2176 69.485 88.1721 69.5756 88.1445C69.6661 88.1169 69.7612 88.1076 69.8553 88.1173C69.9494 88.1269 70.0407 88.1553 70.1239 88.2008C70.2072 88.2462 70.2809 88.3079 70.3407 88.3823C70.4005 88.4567 70.4453 88.5423 70.4725 88.6342C70.4997 88.7262 70.5089 88.8227 70.4994 88.9182C70.4898 89.0137 70.4619 89.1064 70.4171 89.191ZM68.5402 84.5674C68.4495 84.7385 68.2955 84.8659 68.1123 84.9217C67.929 84.9775 67.7314 84.9572 67.563 84.8651C67.3945 84.773 67.269 84.6167 67.214 84.4307C67.159 84.2446 67.1791 84.044 67.2698 83.873C67.3146 83.7883 67.3754 83.7134 67.4487 83.6525C67.522 83.5917 67.6064 83.5461 67.697 83.5184C67.7877 83.4907 67.8828 83.4814 67.9771 83.491C68.0713 83.5006 68.1627 83.5289 68.2461 83.5744C68.3295 83.6199 68.4033 83.6816 68.4632 83.756C68.5231 83.8304 68.568 83.9161 68.5953 84.0082C68.6226 84.1002 68.6318 84.1968 68.6223 84.2924C68.6129 84.3881 68.585 84.4828 68.5402 84.5674Z" fill="#FCBA97"/>
<path d="M87.1307 32.0879V50.6064C87.1307 52.7029 85.4621 54.3951 83.399 54.3951C82.4122 54.3917 81.4671 53.9907 80.7712 53.2804C80.0753 52.57 79.6855 51.6083 79.6875 50.6064V32.0879H87.1307Z" fill="#F1F7FF"/>
<path d="M80.3379 35.6479V50.6043C80.3379 52.332 81.7115 53.7341 83.3985 53.7341C85.0948 53.7341 86.4776 52.3302 86.4776 50.6062V35.6498L80.3379 35.6479Z" fill="#FCBA97"/>
<path d="M88.0971 30.5486V33.0682C88.0971 33.4238 87.8114 33.6915 87.4611 33.6915H79.3578C79.2754 33.694 79.1934 33.6798 79.1166 33.6496C79.0398 33.6195 78.9696 33.574 78.9104 33.5159C78.8511 33.4578 78.8039 33.3883 78.7715 33.3114C78.7391 33.2345 78.7221 33.1518 78.7217 33.0682V30.5486C78.7217 30.193 79.0075 29.9253 79.3578 29.9253H87.4611C87.8114 29.9253 88.0971 30.193 88.0971 30.5486Z" fill="#48609D"/>
<path d="M73.9373 38.9832L77.5548 36.0574C77.8095 35.8375 78.1053 35.672 78.4245 35.5707C78.7436 35.4694 79.0796 35.4344 79.4123 35.4679C79.7451 35.5013 80.0678 35.6025 80.3612 35.7653C80.6546 35.9282 80.9127 36.1494 81.12 36.4158C81.3273 36.6821 81.4797 36.9882 81.5679 37.3156C81.6562 37.6431 81.6786 37.9852 81.6337 38.3216C81.5888 38.658 81.4777 38.9818 81.3068 39.2737C81.136 39.5655 80.909 39.8194 80.6394 40.0202L79.8023 40.6866C79.7251 40.7475 79.6445 40.8038 79.5608 40.8551L75.6152 43.2923L73.9373 38.9832ZM68.6237 55.4277L69.5972 62.3256C69.6783 62.8993 69.5339 63.4824 69.1951 63.9489C68.8564 64.4155 68.3504 64.728 67.7866 64.8189L66.0166 65.1016L62.082 52.7546C62.082 52.7546 62.6812 51.5192 63.2473 50.4148C63.3508 50.2131 63.503 50.0414 63.6895 49.9155C63.8761 49.7896 64.091 49.7137 64.3142 49.6948C64.5374 49.6759 64.7617 49.7147 64.9662 49.8075C65.1707 49.9004 65.3488 50.0442 65.4837 50.2257C65.6429 50.4281 65.7411 50.673 65.7662 50.9307C65.7914 51.1884 65.7426 51.4481 65.6257 51.6783L65.0818 52.7546L72.9509 49.4788C73.3363 49.3197 73.7672 49.3175 74.1541 49.4726C74.541 49.6277 74.8542 49.9283 75.0285 50.3118C75.2027 50.6953 75.2247 51.1322 75.0898 51.5317C74.9549 51.9313 74.6736 52.2627 74.3042 52.457L68.6237 55.4277Z" fill="#F9C4C0"/>
</svg>
